# Blender 4.0.2
# www.blender.org
mtllib brick_pillar.mtl
o Cube.009
v -1.000000 0.000000 1.000000
v -1.000000 6.000000 1.000000
v -1.000000 0.000000 -1.000000
v -1.000000 6.000000 -1.000000
v 1.000000 0.000000 1.000000
v 1.000000 6.000000 1.000000
v 1.000000 0.000000 -1.000000
v 1.000000 6.000000 -1.000000
v 0.000000 0.000000 -1.000000
v 0.000000 6.000000 -1.000000
v 0.000000 0.000000 1.000000
v 0.000000 6.000000 1.000000
v -1.000000 1.000000 1.000000
v -1.000000 2.000000 1.000000
v -1.000000 3.000000 1.000000
v -1.000000 4.000000 1.000000
v -1.000000 5.000000 1.000000
v -1.000000 5.000000 -1.000000
v -1.000000 4.000000 -1.000000
v -1.000000 3.000000 -1.000000
v -1.000000 2.000000 -1.000000
v -1.000000 1.000000 -1.000000
v 1.000000 5.000000 -1.000000
v 1.000000 4.000000 -1.000000
v 1.000000 3.000000 -1.000000
v 1.000000 2.000000 -1.000000
v 1.000000 1.000000 -1.000000
v 1.000000 5.000000 1.000000
v 1.000000 4.000000 1.000000
v 1.000000 3.000000 1.000000
v 1.000000 2.000000 1.000000
v 1.000000 1.000000 1.000000
v 0.000000 5.000000 1.000000
v 0.000000 4.000000 1.000000
v 0.000000 3.000000 1.000000
v 0.000000 2.000000 1.000000
v 0.000000 1.000000 1.000000
v 0.000000 5.000000 -1.000000
v 0.000000 4.000000 -1.000000
v 0.000000 3.000000 -1.000000
v 0.000000 2.000000 -1.000000
v 0.000000 1.000000 -1.000000
v -1.000000 0.000000 0.000000
v -1.000000 6.000000 0.000000
v 1.000000 0.000000 0.000000
v 1.000000 6.000000 0.000000
v 0.000000 6.000000 0.000000
v 0.000000 0.000000 0.000000
v 1.000000 1.000000 0.000000
v 1.000000 2.000000 0.000000
v 1.000000 3.000000 0.000000
v 1.000000 4.000000 0.000000
v 1.000000 5.000000 0.000000
v -1.000000 1.000000 0.000000
v -1.000000 2.000000 0.000000
v -1.000000 3.000000 0.000000
v -1.000000 4.000000 0.000000
v -1.000000 5.000000 0.000000
v -1.544845 0.000000 0.000000
v -1.544845 0.000000 1.544845
v -1.544845 5.000000 1.544845
v -1.544845 6.000000 1.544845
v -1.544845 6.000000 0.000000
v -1.544845 6.000000 -1.544845
v -1.544845 1.000000 -1.544845
v -1.544845 0.000000 -1.544845
v 0.000000 0.000000 -1.544845
v 0.000000 6.000000 -1.544845
v 1.544845 6.000000 -1.544845
v 1.544845 1.000000 -1.544845
v 1.544845 0.000000 -1.544845
v 1.544845 0.000000 0.000000
v 1.544845 6.000000 0.000000
v 1.544845 6.000000 1.544845
v 1.544845 1.000000 1.544845
v 1.544845 0.000000 1.544845
v 0.000000 0.000000 1.544845
v 0.000000 6.000000 1.544845
v 0.000000 1.000000 1.544845
v 0.000000 1.000000 -1.544845
v -1.544845 1.000000 1.544845
v -1.544845 5.000000 -1.544845
v 1.544845 5.000000 -1.544845
v 1.544845 5.000000 1.544845
v 0.000000 5.000000 1.544845
v 0.000000 5.000000 -1.544845
v 1.544845 1.000000 0.000000
v 1.544845 5.000000 0.000000
v -1.544845 1.000000 0.000000
v -1.544845 5.000000 0.000000
vn -0.0000 -1.0000 -0.0000
vn -0.0000 1.0000 -0.0000
vn -0.0000 -0.0000 -1.0000
vn -0.0000 -0.0000 1.0000
vn 1.0000 -0.0000 -0.0000
vn -1.0000 -0.0000 -0.0000
vt 0.338017 0.830729
vt 0.500526 0.919271
vt 0.500526 0.830729
vt 0.419271 0.911983
vt 0.330729 0.749474
vt 0.330729 1.000526
vt 0.249474 0.919271
vt 0.419271 0.838017
vt 0.419271 1.000526
vt 0.250000 0.750000
vt 0.500000 1.000000
vt 0.250000 1.000000
vt 0.411983 0.830729
vt 0.330729 0.838017
vt 0.419271 1.000526
vt 0.419271 0.749474
vt 0.338017 0.919271
vt 0.330729 1.000526
vt 0.411983 0.919271
vt 0.249474 0.830729
vt 0.500000 0.750000
s 0
usemtl Material
f 17/1/1 90/2/1 58/3/1
f 1/4/1 77/5/1 60/6/1
f 2/1/2 63/2/2 62/7/2
f 18/8/1 86/6/1 38/9/1
f 45/10/1 11/11/1 48/12/1
f 44/10/2 12/11/2 47/12/2
f 47/10/2 6/11/2 46/12/2
f 48/10/1 1/11/1 43/12/1
f 1/1/1 59/2/1 43/3/1
f 4/8/2 68/6/2 64/5/2
f 3/13/1 59/7/1 66/2/1
f 21/10/3 42/11/3 22/12/3
f 20/10/3 41/11/3 21/12/3
f 19/10/3 40/11/3 20/12/3
f 18/10/3 39/11/3 19/12/3
f 7/14/1 67/15/1 71/16/1
f 31/10/4 37/11/4 32/12/4
f 30/10/4 36/11/4 31/12/4
f 29/10/4 35/11/4 30/12/4
f 28/10/4 34/11/4 29/12/4
f 18/13/1 90/7/1 82/2/1
f 36/10/4 13/11/4 37/12/4
f 35/10/4 14/11/4 36/12/4
f 34/10/4 15/11/4 35/12/4
f 33/10/4 16/11/4 34/12/4
f 32/17/2 87/3/2 49/2/2
f 50/10/5 32/11/5 49/12/5
f 51/10/5 31/11/5 50/12/5
f 52/10/5 30/11/5 51/12/5
f 53/10/5 29/11/5 52/12/5
f 2/4/2 78/5/2 12/16/2
f 41/10/3 27/11/3 42/12/3
f 40/10/3 26/11/3 41/12/3
f 39/10/3 25/11/3 40/12/3
f 38/10/3 24/11/3 39/12/3
f 13/1/2 89/2/2 81/7/2
f 55/10/6 22/11/6 54/12/6
f 56/10/6 21/11/6 55/12/6
f 57/10/6 20/11/6 56/12/6
f 58/10/6 19/11/6 57/12/6
f 17/10/6 57/11/6 16/12/6
f 16/10/6 56/11/6 15/12/6
f 15/10/6 55/11/6 14/12/6
f 14/10/6 54/11/6 13/12/6
f 17/4/1 85/5/1 61/6/1
f 23/10/5 52/11/5 24/12/5
f 24/10/5 51/11/5 25/12/5
f 25/10/5 50/11/5 26/12/5
f 26/10/5 49/11/5 27/12/5
f 5/8/1 77/18/1 11/15/1
f 9/10/1 43/11/1 3/12/1
f 10/10/2 46/11/2 8/12/2
f 4/10/2 47/11/2 10/12/2
f 7/10/1 48/11/1 9/12/1
f 22/8/2 80/6/2 65/5/2
f 23/19/1 88/20/1 53/7/1
f 63/10/6 82/11/6 90/12/6
f 68/10/3 83/11/3 86/12/3
f 73/10/5 84/11/5 88/12/5
f 78/10/4 61/11/4 85/12/4
f 74/10/4 85/11/4 84/12/4
f 64/10/3 86/11/3 82/12/3
f 65/10/3 67/11/3 66/12/3
f 75/10/4 77/11/4 76/12/4
f 79/10/4 60/11/4 77/12/4
f 87/10/5 76/11/5 72/12/5
f 80/10/3 71/11/3 67/12/3
f 89/10/6 66/11/6 59/12/6
f 81/10/6 59/11/6 60/12/6
f 70/10/5 72/11/5 71/12/5
f 69/10/5 88/11/5 83/12/5
f 62/10/6 90/11/6 61/12/6
f 32/8/2 79/18/2 75/5/2
f 5/17/1 72/3/1 76/20/1
f 6/8/2 78/18/2 74/5/2
f 4/13/2 63/7/2 44/20/2
f 28/17/1 88/3/1 84/20/1
f 8/19/2 73/20/2 69/3/2
f 27/14/2 80/15/2 42/18/2
f 3/8/1 67/6/1 9/9/1
f 8/14/2 68/15/2 10/18/2
f 28/8/1 85/18/1 33/15/1
f 27/19/2 87/20/2 70/3/2
f 13/4/2 79/5/2 37/16/2
f 23/14/1 86/15/1 83/16/1
f 7/19/1 72/20/1 45/7/1
f 22/13/2 89/7/2 54/20/2
f 6/17/2 73/3/2 46/2/2
f 17/1/1 61/7/1 90/2/1
f 1/4/1 11/16/1 77/5/1
f 2/1/2 44/3/2 63/2/2
f 18/8/1 82/5/1 86/6/1
f 45/10/1 5/21/1 11/11/1
f 44/10/2 2/21/2 12/11/2
f 47/10/2 12/21/2 6/11/2
f 48/10/1 11/21/1 1/11/1
f 1/1/1 60/7/1 59/2/1
f 4/8/2 10/9/2 68/6/2
f 3/13/1 43/20/1 59/7/1
f 21/10/3 41/21/3 42/11/3
f 20/10/3 40/21/3 41/11/3
f 19/10/3 39/21/3 40/11/3
f 18/10/3 38/21/3 39/11/3
f 7/14/1 9/18/1 67/15/1
f 31/10/4 36/21/4 37/11/4
f 30/10/4 35/21/4 36/11/4
f 29/10/4 34/21/4 35/11/4
f 28/10/4 33/21/4 34/11/4
f 18/13/1 58/20/1 90/7/1
f 36/10/4 14/21/4 13/11/4
f 35/10/4 15/21/4 14/11/4
f 34/10/4 16/21/4 15/11/4
f 33/10/4 17/21/4 16/11/4
f 32/17/2 75/20/2 87/3/2
f 50/10/5 31/21/5 32/11/5
f 51/10/5 30/21/5 31/11/5
f 52/10/5 29/21/5 30/11/5
f 53/10/5 28/21/5 29/11/5
f 2/4/2 62/6/2 78/5/2
f 41/10/3 26/21/3 27/11/3
f 40/10/3 25/21/3 26/11/3
f 39/10/3 24/21/3 25/11/3
f 38/10/3 23/21/3 24/11/3
f 13/1/2 54/3/2 89/2/2
f 55/10/6 21/21/6 22/11/6
f 56/10/6 20/21/6 21/11/6
f 57/10/6 19/21/6 20/11/6
f 58/10/6 18/21/6 19/11/6
f 17/10/6 58/21/6 57/11/6
f 16/10/6 57/21/6 56/11/6
f 15/10/6 56/21/6 55/11/6
f 14/10/6 55/21/6 54/11/6
f 17/4/1 33/16/1 85/5/1
f 23/10/5 53/21/5 52/11/5
f 24/10/5 52/21/5 51/11/5
f 25/10/5 51/21/5 50/11/5
f 26/10/5 50/21/5 49/11/5
f 5/8/1 76/5/1 77/18/1
f 9/10/1 48/21/1 43/11/1
f 10/10/2 47/21/2 46/11/2
f 4/10/2 44/21/2 47/11/2
f 7/10/1 45/21/1 48/11/1
f 22/8/2 42/9/2 80/6/2
f 23/19/1 83/3/1 88/20/1
f 63/10/6 64/21/6 82/11/6
f 68/10/3 69/21/3 83/11/3
f 73/10/5 74/21/5 84/11/5
f 78/10/4 62/21/4 61/11/4
f 74/10/4 78/21/4 85/11/4
f 64/10/3 68/21/3 86/11/3
f 65/10/3 80/21/3 67/11/3
f 75/10/4 79/21/4 77/11/4
f 79/10/4 81/21/4 60/11/4
f 87/10/5 75/21/5 76/11/5
f 80/10/3 70/21/3 71/11/3
f 89/10/6 65/21/6 66/11/6
f 81/10/6 89/21/6 59/11/6
f 70/10/5 87/21/5 72/11/5
f 69/10/5 73/21/5 88/11/5
f 62/10/6 63/21/6 90/11/6
f 32/8/2 37/15/2 79/18/2
f 5/17/1 45/2/1 72/3/1
f 6/8/2 12/15/2 78/18/2
f 4/13/2 64/2/2 63/7/2
f 28/17/1 53/2/1 88/3/1
f 8/19/2 46/7/2 73/20/2
f 27/14/2 70/16/2 80/15/2
f 3/8/1 66/5/1 67/6/1
f 8/14/2 69/16/2 68/15/2
f 28/8/1 84/5/1 85/18/1
f 27/19/2 49/7/2 87/20/2
f 13/4/2 81/6/2 79/5/2
f 23/14/1 38/18/1 86/15/1
f 7/19/1 71/3/1 72/20/1
f 22/13/2 65/2/2 89/7/2
f 6/17/2 74/20/2 73/3/2
