# Blender 4.0.2
# www.blender.org
mtllib brick_wall.mtl
o Cube.002
v -5.000000 0.000000 0.300000
v -5.000000 6.000000 0.300000
v -5.000000 0.000000 -0.300000
v -5.000000 6.000000 -0.300000
v 5.000000 0.000000 0.300000
v 5.000000 6.000000 0.300000
v 5.000000 0.000000 -0.300000
v 5.000000 6.000000 -0.300000
v 4.000000 0.000000 -0.300000
v 3.000000 0.000000 -0.300000
v 2.000000 0.000000 -0.300000
v 1.000000 0.000000 -0.300000
v 0.000000 0.000000 -0.300000
v -1.000000 0.000000 -0.300000
v -2.000000 0.000000 -0.300000
v -3.000000 0.000000 -0.300000
v -4.000000 0.000000 -0.300000
v -4.000000 6.000000 -0.300000
v -3.000000 6.000000 -0.300000
v -2.000000 6.000000 -0.300000
v -1.000000 6.000000 -0.300000
v 0.000000 6.000000 -0.300000
v 1.000000 6.000000 -0.300000
v 2.000000 6.000000 -0.300000
v 3.000000 6.000000 -0.300000
v 4.000000 6.000000 -0.300000
v -4.000000 0.000000 0.300000
v -3.000000 0.000000 0.300000
v -2.000000 0.000000 0.300000
v -1.000000 0.000000 0.300000
v 0.000000 0.000000 0.300000
v 1.000000 0.000000 0.300000
v 2.000000 0.000000 0.300000
v 3.000000 0.000000 0.300000
v 4.000000 0.000000 0.300000
v 4.000000 6.000000 0.300000
v 3.000000 6.000000 0.300000
v 2.000000 6.000000 0.300000
v 1.000000 6.000000 0.300000
v 0.000000 6.000000 0.300000
v -1.000000 6.000000 0.300000
v -2.000000 6.000000 0.300000
v -3.000000 6.000000 0.300000
v -4.000000 6.000000 0.300000
v -5.000000 1.000000 0.300000
v -5.000000 2.000000 0.300000
v -5.000000 3.000000 0.300000
v -5.000000 4.000000 0.300000
v -5.000000 5.000000 0.300000
v -5.000000 5.000000 -0.300000
v -5.000000 4.000000 -0.300000
v -5.000000 3.000000 -0.300000
v -5.000000 2.000000 -0.300000
v -5.000000 1.000000 -0.300000
v 5.000000 5.000000 -0.300000
v 5.000000 4.000000 -0.300000
v 5.000000 3.000000 -0.300000
v 5.000000 2.000000 -0.300000
v 5.000000 1.000000 -0.300000
v 5.000000 5.000000 0.300000
v 5.000000 4.000000 0.300000
v 5.000000 3.000000 0.300000
v 5.000000 2.000000 0.300000
v 5.000000 1.000000 0.300000
v 4.000000 5.000000 0.300000
v 4.000000 4.000000 0.300000
v 4.000000 3.000000 0.300000
v 4.000000 2.000000 0.300000
v 4.000000 1.000000 0.300000
v 3.000000 5.000000 0.300000
v 3.000000 4.000000 0.300000
v 3.000000 3.000000 0.300000
v 3.000000 2.000000 0.300000
v 3.000000 1.000000 0.300000
v 2.000000 5.000000 0.300000
v 2.000000 4.000000 0.300000
v 2.000000 3.000000 0.300000
v 2.000000 2.000000 0.300000
v 2.000000 1.000000 0.300000
v 1.000000 5.000000 0.300000
v 1.000000 4.000000 0.300000
v 1.000000 3.000000 0.300000
v 1.000000 2.000000 0.300000
v 1.000000 1.000000 0.300000
v 0.000000 5.000000 0.300000
v 0.000000 4.000000 0.300000
v 0.000000 3.000000 0.300000
v 0.000000 2.000000 0.300000
v 0.000000 1.000000 0.300000
v -1.000000 5.000000 0.300000
v -1.000000 4.000000 0.300000
v -1.000000 3.000000 0.300000
v -1.000000 2.000000 0.300000
v -1.000000 1.000000 0.300000
v -2.000000 5.000000 0.300000
v -2.000000 4.000000 0.300000
v -2.000000 3.000000 0.300000
v -2.000000 2.000000 0.300000
v -2.000000 1.000000 0.300000
v -3.000000 5.000000 0.300000
v -3.000000 4.000000 0.300000
v -3.000000 3.000000 0.300000
v -3.000000 2.000000 0.300000
v -3.000000 1.000000 0.300000
v -4.000000 5.000000 0.300000
v -4.000000 4.000000 0.300000
v -4.000000 3.000000 0.300000
v -4.000000 2.000000 0.300000
v -4.000000 1.000000 0.300000
v -4.000000 5.000000 -0.300000
v -4.000000 4.000000 -0.300000
v -4.000000 3.000000 -0.300000
v -4.000000 2.000000 -0.300000
v -4.000000 1.000000 -0.300000
v -3.000000 5.000000 -0.300000
v -3.000000 4.000000 -0.300000
v -3.000000 3.000000 -0.300000
v -3.000000 2.000000 -0.300000
v -3.000000 1.000000 -0.300000
v -2.000000 5.000000 -0.300000
v -2.000000 4.000000 -0.300000
v -2.000000 3.000000 -0.300000
v -2.000000 2.000000 -0.300000
v -2.000000 1.000000 -0.300000
v -1.000000 5.000000 -0.300000
v -1.000000 4.000000 -0.300000
v -1.000000 3.000000 -0.300000
v -1.000000 2.000000 -0.300000
v -1.000000 1.000000 -0.300000
v 0.000000 5.000000 -0.300000
v 0.000000 4.000000 -0.300000
v 0.000000 3.000000 -0.300000
v 0.000000 2.000000 -0.300000
v 0.000000 1.000000 -0.300000
v 1.000000 5.000000 -0.300000
v 1.000000 4.000000 -0.300000
v 1.000000 3.000000 -0.300000
v 1.000000 2.000000 -0.300000
v 1.000000 1.000000 -0.300000
v 2.000000 5.000000 -0.300000
v 2.000000 4.000000 -0.300000
v 2.000000 3.000000 -0.300000
v 2.000000 2.000000 -0.300000
v 2.000000 1.000000 -0.300000
v 3.000000 5.000000 -0.300000
v 3.000000 4.000000 -0.300000
v 3.000000 3.000000 -0.300000
v 3.000000 2.000000 -0.300000
v 3.000000 1.000000 -0.300000
v 4.000000 5.000000 -0.300000
v 4.000000 4.000000 -0.300000
v 4.000000 3.000000 -0.300000
v 4.000000 2.000000 -0.300000
v 4.000000 1.000000 -0.300000
v -5.595022 4.927771 0.752106
v -5.595022 6.072229 0.752106
v -5.595022 6.072229 -0.752106
v 4.476017 6.072229 -0.752106
v 5.595022 6.072229 -0.752106
v 5.595022 6.072229 0.752106
v -4.476017 6.072229 0.752106
v -4.476017 6.072229 -0.752106
v -3.357013 6.072229 -0.752106
v -2.238008 6.072229 -0.752106
v -1.119004 6.072229 -0.752106
v -0.000000 6.072229 -0.752106
v 1.119004 6.072229 -0.752106
v 2.238008 6.072229 -0.752106
v 3.357013 6.072229 -0.752106
v 4.476017 6.072229 0.752106
v 3.357013 6.072229 0.752106
v 2.238008 6.072229 0.752106
v 1.119004 6.072229 0.752106
v -0.000000 6.072229 0.752106
v -1.119004 6.072229 0.752106
v -2.238008 6.072229 0.752106
v -3.357013 6.072229 0.752106
v -5.595022 4.927771 -0.752106
v 5.595022 4.927771 -0.752106
v 5.595022 4.927771 0.752106
v 4.476017 4.927771 0.752106
v 3.357013 4.927771 0.752106
v 2.238008 4.927771 0.752106
v 1.119004 4.927771 0.752106
v -0.000000 4.927771 0.752106
v -1.119004 4.927771 0.752106
v -2.238008 4.927771 0.752106
v -3.357013 4.927771 0.752106
v -4.476017 4.927771 0.752106
v -4.476017 4.927771 -0.752106
v -3.357013 4.927771 -0.752106
v -2.238008 4.927771 -0.752106
v -1.119004 4.927771 -0.752106
v -0.000000 4.927771 -0.752106
v 1.119004 4.927771 -0.752106
v 2.238008 4.927771 -0.752106
v 3.357013 4.927771 -0.752106
v 4.476017 4.927771 -0.752106
vn -0.0000 -0.9875 0.1578
vn -0.0000 0.9875 -0.1578
vn -0.0000 -0.9875 -0.1578
vn -0.0000 -1.0000 -0.0000
vn -0.0000 1.0000 -0.0000
vn -0.0000 0.9875 0.1578
vn 0.1205 0.9927 -0.0000
vn -0.0000 -0.0000 -1.0000
vn -0.0000 -0.0000 1.0000
vn 1.0000 -0.0000 -0.0000
vn -1.0000 -0.0000 -0.0000
vn -0.1205 0.9927 -0.0000
vn 0.1205 -0.9927 -0.0000
vn -0.1205 -0.9927 -0.0000
vt 0.250000 0.800000
vt 0.500000 0.950000
vt 0.250000 0.950000
vt 0.500000 0.800000
vt 0.450000 0.750000
vt 0.300000 1.000000
vt 0.300000 0.750000
vt 0.250000 0.750000
vt 0.500000 1.000000
vt 0.250000 1.000000
vt 0.450000 1.000000
vt 0.500000 0.750000
s 0
usemtl Material
f 140/1/1 195/2/1 196/3/1
f 44/4/2 177/3/2 43/1/2
f 100/1/3 187/2/3 188/3/3
f 49/1/3 189/2/3 155/3/3
f 7/4/4 35/3/4 9/1/4
f 4/4/5 44/3/5 18/1/5
f 26/4/5 6/3/5 8/1/5
f 25/4/5 36/3/5 26/1/5
f 24/4/5 37/3/5 25/1/5
f 23/4/5 38/3/5 24/1/5
f 22/4/5 39/3/5 23/1/5
f 21/4/5 40/3/5 22/1/5
f 20/4/5 41/3/5 21/1/5
f 19/4/5 42/3/5 20/1/5
f 18/4/5 43/3/5 19/1/5
f 17/4/4 1/3/4 3/1/4
f 16/4/4 27/3/4 17/1/4
f 15/4/4 28/3/4 16/1/4
f 14/4/4 29/3/4 15/1/4
f 13/4/4 30/3/4 14/1/4
f 12/4/4 31/3/4 13/1/4
f 11/4/4 32/3/4 12/1/4
f 10/4/4 33/3/4 11/1/4
f 9/4/4 34/3/4 10/1/4
f 43/4/2 176/3/2 42/1/2
f 110/4/1 191/3/1 115/1/1
f 8/4/6 158/3/6 26/1/6
f 70/4/3 183/3/3 75/1/3
f 42/4/2 175/3/2 41/1/2
f 41/4/2 174/3/2 40/1/2
f 125/4/1 194/3/1 130/1/1
f 90/1/3 185/2/3 186/3/3
f 55/1/1 198/2/1 179/3/1
f 39/1/2 174/2/2 173/3/2
f 26/4/6 169/3/6 25/1/6
f 4/5/7 156/6/7 2/7/7
f 145/1/1 196/2/1 197/3/1
f 38/1/2 173/2/2 172/3/2
f 105/1/3 188/2/3 189/3/3
f 60/4/3 181/3/3 65/1/3
f 25/4/6 168/3/6 24/1/6
f 37/1/2 172/2/2 171/3/2
f 149/8/8 9/9/8 10/10/8
f 148/8/8 154/9/8 149/10/8
f 147/8/8 153/9/8 148/10/8
f 146/8/8 152/9/8 147/10/8
f 145/8/8 151/9/8 146/10/8
f 144/8/8 10/9/8 11/10/8
f 143/8/8 149/9/8 144/10/8
f 142/8/8 148/9/8 143/10/8
f 141/8/8 147/9/8 142/10/8
f 140/8/8 146/9/8 141/10/8
f 139/8/8 11/9/8 12/10/8
f 138/8/8 144/9/8 139/10/8
f 137/8/8 143/9/8 138/10/8
f 136/8/8 142/9/8 137/10/8
f 135/8/8 141/9/8 136/10/8
f 134/8/8 12/9/8 13/10/8
f 133/8/8 139/9/8 134/10/8
f 132/8/8 138/9/8 133/10/8
f 131/8/8 137/9/8 132/10/8
f 130/8/8 136/9/8 131/10/8
f 129/8/8 13/9/8 14/10/8
f 128/8/8 134/9/8 129/10/8
f 127/8/8 133/9/8 128/10/8
f 126/8/8 132/9/8 127/10/8
f 125/8/8 131/9/8 126/10/8
f 124/8/8 14/9/8 15/10/8
f 123/8/8 129/9/8 124/10/8
f 122/8/8 128/9/8 123/10/8
f 121/8/8 127/9/8 122/10/8
f 120/8/8 126/9/8 121/10/8
f 119/8/8 15/9/8 16/10/8
f 118/8/8 124/9/8 119/10/8
f 117/8/8 123/9/8 118/10/8
f 116/8/8 122/9/8 117/10/8
f 115/8/8 121/9/8 116/10/8
f 114/8/8 16/9/8 17/10/8
f 113/8/8 119/9/8 114/10/8
f 112/8/8 118/9/8 113/10/8
f 111/8/8 117/9/8 112/10/8
f 110/8/8 116/9/8 111/10/8
f 54/8/8 17/9/8 3/10/8
f 53/8/8 114/9/8 54/10/8
f 52/8/8 113/9/8 53/10/8
f 51/8/8 112/9/8 52/10/8
f 50/8/8 111/9/8 51/10/8
f 104/8/9 27/9/9 28/10/9
f 103/8/9 109/9/9 104/10/9
f 102/8/9 108/9/9 103/10/9
f 101/8/9 107/9/9 102/10/9
f 100/8/9 106/9/9 101/10/9
f 99/8/9 28/9/9 29/10/9
f 98/8/9 104/9/9 99/10/9
f 97/8/9 103/9/9 98/10/9
f 96/8/9 102/9/9 97/10/9
f 95/8/9 101/9/9 96/10/9
f 94/8/9 29/9/9 30/10/9
f 93/8/9 99/9/9 94/10/9
f 92/8/9 98/9/9 93/10/9
f 91/8/9 97/9/9 92/10/9
f 90/8/9 96/9/9 91/10/9
f 89/8/9 30/9/9 31/10/9
f 88/8/9 94/9/9 89/10/9
f 87/8/9 93/9/9 88/10/9
f 86/8/9 92/9/9 87/10/9
f 85/8/9 91/9/9 86/10/9
f 84/8/9 31/9/9 32/10/9
f 83/8/9 89/9/9 84/10/9
f 82/8/9 88/9/9 83/10/9
f 81/8/9 87/9/9 82/10/9
f 80/8/9 86/9/9 81/10/9
f 79/8/9 32/9/9 33/10/9
f 78/8/9 84/9/9 79/10/9
f 77/8/9 83/9/9 78/10/9
f 76/8/9 82/9/9 77/10/9
f 75/8/9 81/9/9 76/10/9
f 74/8/9 33/9/9 34/10/9
f 73/8/9 79/9/9 74/10/9
f 72/8/9 78/9/9 73/10/9
f 71/8/9 77/9/9 72/10/9
f 70/8/9 76/9/9 71/10/9
f 69/8/9 34/9/9 35/10/9
f 68/8/9 74/9/9 69/10/9
f 67/8/9 73/9/9 68/10/9
f 66/8/9 72/9/9 67/10/9
f 65/8/9 71/9/9 66/10/9
f 64/8/9 35/9/9 5/10/9
f 63/8/9 69/9/9 64/10/9
f 62/8/9 68/9/9 63/10/9
f 61/8/9 67/9/9 62/10/9
f 60/8/9 66/9/9 61/10/9
f 109/8/9 1/9/9 27/10/9
f 108/8/9 45/9/9 109/10/9
f 107/8/9 46/9/9 108/10/9
f 106/8/9 47/9/9 107/10/9
f 105/8/9 48/9/9 106/10/9
f 59/7/10 5/11/10 7/6/10
f 58/7/10 64/11/10 59/6/10
f 57/7/10 63/11/10 58/6/10
f 56/7/10 62/11/10 57/6/10
f 55/7/10 61/11/10 56/6/10
f 154/8/8 7/9/8 9/10/8
f 153/8/8 59/9/8 154/10/8
f 152/8/8 58/9/8 153/10/8
f 151/8/8 57/9/8 152/10/8
f 150/8/8 56/9/8 151/10/8
f 45/7/11 3/11/11 1/6/11
f 46/7/11 54/11/11 45/6/11
f 47/7/11 53/11/11 46/6/11
f 48/7/11 52/11/11 47/6/11
f 49/7/11 51/11/11 48/6/11
f 156/7/11 178/11/11 155/6/11
f 158/8/8 179/9/8 198/10/8
f 159/7/10 180/11/10 179/6/10
f 161/8/9 155/9/9 189/10/9
f 160/8/9 181/9/9 180/10/9
f 170/8/9 182/9/9 181/10/9
f 171/8/9 183/9/9 182/10/9
f 172/8/9 184/9/9 183/10/9
f 173/8/9 185/9/9 184/10/9
f 174/8/9 186/9/9 185/10/9
f 175/8/9 187/9/9 186/10/9
f 176/8/9 188/9/9 187/10/9
f 177/8/9 189/9/9 188/10/9
f 157/8/8 190/9/8 178/10/8
f 162/8/8 191/9/8 190/10/8
f 163/8/8 192/9/8 191/10/8
f 164/8/8 193/9/8 192/10/8
f 165/8/8 194/9/8 193/10/8
f 166/8/8 195/9/8 194/10/8
f 167/8/8 196/9/8 195/10/8
f 168/8/8 197/9/8 196/10/8
f 169/8/8 198/9/8 197/10/8
f 4/1/6 162/2/6 157/3/6
f 6/5/12 159/6/12 8/7/12
f 49/5/13 178/6/13 50/7/13
f 80/4/3 185/3/3 85/1/3
f 120/4/1 193/3/1 125/1/1
f 18/1/6 163/2/6 162/3/6
f 19/1/6 164/2/6 163/3/6
f 65/4/3 182/3/3 70/1/3
f 50/4/1 190/3/1 110/1/1
f 150/1/1 197/2/1 198/3/1
f 20/1/6 165/2/6 164/3/6
f 2/4/2 161/3/2 44/1/2
f 55/5/14 180/6/14 60/7/14
f 21/1/6 166/2/6 165/3/6
f 95/1/3 186/2/3 187/3/3
f 135/1/1 194/2/1 195/3/1
f 6/1/2 170/2/2 160/3/2
f 23/4/6 166/3/6 22/1/6
f 36/1/2 171/2/2 170/3/2
f 75/4/3 184/3/3 80/1/3
f 115/4/1 192/3/1 120/1/1
f 24/4/6 167/3/6 23/1/6
f 140/1/1 135/4/1 195/2/1
f 44/4/2 161/2/2 177/3/2
f 100/1/3 95/4/3 187/2/3
f 49/1/3 105/4/3 189/2/3
f 7/4/4 5/2/4 35/3/4
f 4/4/5 2/2/5 44/3/5
f 26/4/5 36/2/5 6/3/5
f 25/4/5 37/2/5 36/3/5
f 24/4/5 38/2/5 37/3/5
f 23/4/5 39/2/5 38/3/5
f 22/4/5 40/2/5 39/3/5
f 21/4/5 41/2/5 40/3/5
f 20/4/5 42/2/5 41/3/5
f 19/4/5 43/2/5 42/3/5
f 18/4/5 44/2/5 43/3/5
f 17/4/4 27/2/4 1/3/4
f 16/4/4 28/2/4 27/3/4
f 15/4/4 29/2/4 28/3/4
f 14/4/4 30/2/4 29/3/4
f 13/4/4 31/2/4 30/3/4
f 12/4/4 32/2/4 31/3/4
f 11/4/4 33/2/4 32/3/4
f 10/4/4 34/2/4 33/3/4
f 9/4/4 35/2/4 34/3/4
f 43/4/2 177/2/2 176/3/2
f 110/4/1 190/2/1 191/3/1
f 8/4/6 159/2/6 158/3/6
f 70/4/3 182/2/3 183/3/3
f 42/4/2 176/2/2 175/3/2
f 41/4/2 175/2/2 174/3/2
f 125/4/1 193/2/1 194/3/1
f 90/1/3 85/4/3 185/2/3
f 55/1/1 150/4/1 198/2/1
f 39/1/2 40/4/2 174/2/2
f 26/4/6 158/2/6 169/3/6
f 4/5/7 157/11/7 156/6/7
f 145/1/1 140/4/1 196/2/1
f 38/1/2 39/4/2 173/2/2
f 105/1/3 100/4/3 188/2/3
f 60/4/3 180/2/3 181/3/3
f 25/4/6 169/2/6 168/3/6
f 37/1/2 38/4/2 172/2/2
f 149/8/8 154/12/8 9/9/8
f 148/8/8 153/12/8 154/9/8
f 147/8/8 152/12/8 153/9/8
f 146/8/8 151/12/8 152/9/8
f 145/8/8 150/12/8 151/9/8
f 144/8/8 149/12/8 10/9/8
f 143/8/8 148/12/8 149/9/8
f 142/8/8 147/12/8 148/9/8
f 141/8/8 146/12/8 147/9/8
f 140/8/8 145/12/8 146/9/8
f 139/8/8 144/12/8 11/9/8
f 138/8/8 143/12/8 144/9/8
f 137/8/8 142/12/8 143/9/8
f 136/8/8 141/12/8 142/9/8
f 135/8/8 140/12/8 141/9/8
f 134/8/8 139/12/8 12/9/8
f 133/8/8 138/12/8 139/9/8
f 132/8/8 137/12/8 138/9/8
f 131/8/8 136/12/8 137/9/8
f 130/8/8 135/12/8 136/9/8
f 129/8/8 134/12/8 13/9/8
f 128/8/8 133/12/8 134/9/8
f 127/8/8 132/12/8 133/9/8
f 126/8/8 131/12/8 132/9/8
f 125/8/8 130/12/8 131/9/8
f 124/8/8 129/12/8 14/9/8
f 123/8/8 128/12/8 129/9/8
f 122/8/8 127/12/8 128/9/8
f 121/8/8 126/12/8 127/9/8
f 120/8/8 125/12/8 126/9/8
f 119/8/8 124/12/8 15/9/8
f 118/8/8 123/12/8 124/9/8
f 117/8/8 122/12/8 123/9/8
f 116/8/8 121/12/8 122/9/8
f 115/8/8 120/12/8 121/9/8
f 114/8/8 119/12/8 16/9/8
f 113/8/8 118/12/8 119/9/8
f 112/8/8 117/12/8 118/9/8
f 111/8/8 116/12/8 117/9/8
f 110/8/8 115/12/8 116/9/8
f 54/8/8 114/12/8 17/9/8
f 53/8/8 113/12/8 114/9/8
f 52/8/8 112/12/8 113/9/8
f 51/8/8 111/12/8 112/9/8
f 50/8/8 110/12/8 111/9/8
f 104/8/9 109/12/9 27/9/9
f 103/8/9 108/12/9 109/9/9
f 102/8/9 107/12/9 108/9/9
f 101/8/9 106/12/9 107/9/9
f 100/8/9 105/12/9 106/9/9
f 99/8/9 104/12/9 28/9/9
f 98/8/9 103/12/9 104/9/9
f 97/8/9 102/12/9 103/9/9
f 96/8/9 101/12/9 102/9/9
f 95/8/9 100/12/9 101/9/9
f 94/8/9 99/12/9 29/9/9
f 93/8/9 98/12/9 99/9/9
f 92/8/9 97/12/9 98/9/9
f 91/8/9 96/12/9 97/9/9
f 90/8/9 95/12/9 96/9/9
f 89/8/9 94/12/9 30/9/9
f 88/8/9 93/12/9 94/9/9
f 87/8/9 92/12/9 93/9/9
f 86/8/9 91/12/9 92/9/9
f 85/8/9 90/12/9 91/9/9
f 84/8/9 89/12/9 31/9/9
f 83/8/9 88/12/9 89/9/9
f 82/8/9 87/12/9 88/9/9
f 81/8/9 86/12/9 87/9/9
f 80/8/9 85/12/9 86/9/9
f 79/8/9 84/12/9 32/9/9
f 78/8/9 83/12/9 84/9/9
f 77/8/9 82/12/9 83/9/9
f 76/8/9 81/12/9 82/9/9
f 75/8/9 80/12/9 81/9/9
f 74/8/9 79/12/9 33/9/9
f 73/8/9 78/12/9 79/9/9
f 72/8/9 77/12/9 78/9/9
f 71/8/9 76/12/9 77/9/9
f 70/8/9 75/12/9 76/9/9
f 69/8/9 74/12/9 34/9/9
f 68/8/9 73/12/9 74/9/9
f 67/8/9 72/12/9 73/9/9
f 66/8/9 71/12/9 72/9/9
f 65/8/9 70/12/9 71/9/9
f 64/8/9 69/12/9 35/9/9
f 63/8/9 68/12/9 69/9/9
f 62/8/9 67/12/9 68/9/9
f 61/8/9 66/12/9 67/9/9
f 60/8/9 65/12/9 66/9/9
f 109/8/9 45/12/9 1/9/9
f 108/8/9 46/12/9 45/9/9
f 107/8/9 47/12/9 46/9/9
f 106/8/9 48/12/9 47/9/9
f 105/8/9 49/12/9 48/9/9
f 59/7/10 64/5/10 5/11/10
f 58/7/10 63/5/10 64/11/10
f 57/7/10 62/5/10 63/11/10
f 56/7/10 61/5/10 62/11/10
f 55/7/10 60/5/10 61/11/10
f 154/8/8 59/12/8 7/9/8
f 153/8/8 58/12/8 59/9/8
f 152/8/8 57/12/8 58/9/8
f 151/8/8 56/12/8 57/9/8
f 150/8/8 55/12/8 56/9/8
f 45/7/11 54/5/11 3/11/11
f 46/7/11 53/5/11 54/11/11
f 47/7/11 52/5/11 53/11/11
f 48/7/11 51/5/11 52/11/11
f 49/7/11 50/5/11 51/11/11
f 156/7/11 157/5/11 178/11/11
f 158/8/8 159/12/8 179/9/8
f 159/7/10 160/5/10 180/11/10
f 161/8/9 156/12/9 155/9/9
f 160/8/9 170/12/9 181/9/9
f 170/8/9 171/12/9 182/9/9
f 171/8/9 172/12/9 183/9/9
f 172/8/9 173/12/9 184/9/9
f 173/8/9 174/12/9 185/9/9
f 174/8/9 175/12/9 186/9/9
f 175/8/9 176/12/9 187/9/9
f 176/8/9 177/12/9 188/9/9
f 177/8/9 161/12/9 189/9/9
f 157/8/8 162/12/8 190/9/8
f 162/8/8 163/12/8 191/9/8
f 163/8/8 164/12/8 192/9/8
f 164/8/8 165/12/8 193/9/8
f 165/8/8 166/12/8 194/9/8
f 166/8/8 167/12/8 195/9/8
f 167/8/8 168/12/8 196/9/8
f 168/8/8 169/12/8 197/9/8
f 169/8/8 158/12/8 198/9/8
f 4/1/6 18/4/6 162/2/6
f 6/5/12 160/11/12 159/6/12
f 49/5/13 155/11/13 178/6/13
f 80/4/3 184/2/3 185/3/3
f 120/4/1 192/2/1 193/3/1
f 18/1/6 19/4/6 163/2/6
f 19/1/6 20/4/6 164/2/6
f 65/4/3 181/2/3 182/3/3
f 50/4/1 178/2/1 190/3/1
f 150/1/1 145/4/1 197/2/1
f 20/1/6 21/4/6 165/2/6
f 2/4/2 156/2/2 161/3/2
f 55/5/14 179/11/14 180/6/14
f 21/1/6 22/4/6 166/2/6
f 95/1/3 90/4/3 186/2/3
f 135/1/1 130/4/1 194/2/1
f 6/1/2 36/4/2 170/2/2
f 23/4/6 167/2/6 166/3/6
f 36/1/2 37/4/2 171/2/2
f 75/4/3 183/2/3 184/3/3
f 115/4/1 191/2/1 192/3/1
f 24/4/6 168/2/6 167/3/6
