# Blender 4.0.2
# www.blender.org
mtllib floor.mtl
o Cube.001
v -2.000000 -0.100000 2.000000
v -2.000000 0.100000 2.000000
v -2.000000 -0.100000 -2.000000
v -2.000000 0.100000 -2.000000
v 2.000000 -0.100000 2.000000
v 2.000000 0.100000 2.000000
v 2.000000 -0.100000 -2.000000
v 2.000000 0.100000 -2.000000
v -2.000000 -0.100000 -1.000000
v -2.000000 -0.100000 0.000000
v -2.000000 -0.100000 1.000000
v -2.000000 0.100000 1.000000
v -2.000000 0.100000 0.000000
v -2.000000 0.100000 -1.000000
v 2.000000 -0.100000 1.000000
v 2.000000 -0.100000 0.000000
v 2.000000 -0.100000 -1.000000
v 2.000000 0.100000 -1.000000
v 2.000000 0.100000 0.000000
v 2.000000 0.100000 1.000000
v 1.000000 -0.100000 -2.000000
v 0.000000 -0.100000 -2.000000
v -1.000000 -0.100000 -2.000000
v -1.000000 0.100000 -2.000000
v 0.000000 0.100000 -2.000000
v 1.000000 0.100000 -2.000000
v -1.000000 -0.100000 2.000000
v 0.000000 -0.100000 2.000000
v 1.000000 -0.100000 2.000000
v 1.000000 0.100000 2.000000
v 0.000000 0.100000 2.000000
v -1.000000 0.100000 2.000000
v -1.000000 0.100000 -1.000000
v 0.000000 0.100000 -1.000000
v 1.000000 0.100000 -1.000000
v -1.000000 0.100000 0.000000
v 0.000000 0.100000 0.000000
v 1.000000 0.100000 0.000000
v -1.000000 0.100000 1.000000
v 0.000000 0.100000 1.000000
v 1.000000 0.100000 1.000000
v 1.000000 -0.100000 -1.000000
v 0.000000 -0.100000 -1.000000
v -1.000000 -0.100000 -1.000000
v 1.000000 -0.100000 0.000000
v 0.000000 -0.100000 0.000000
v -1.000000 -0.100000 0.000000
v 1.000000 -0.100000 1.000000
v 0.000000 -0.100000 1.000000
v -1.000000 -0.100000 1.000000
vn -1.0000 -0.0000 -0.0000
vn -0.0000 -0.0000 -1.0000
vn 1.0000 -0.0000 -0.0000
vn -0.0000 -0.0000 1.0000
vn -0.0000 -1.0000 -0.0000
vn -0.0000 1.0000 -0.0000
vt 0.637500 0.750000
vt 0.612500 1.000000
vt 0.612500 0.750000
vt 0.750000 0.750000
vt 0.500000 1.000000
vt 0.500000 0.750000
vt 0.637500 1.000000
vt 0.750000 1.000000
s 0
usemtl Material
f 14/1/1 3/2/1 9/3/1
f 26/1/2 7/2/2 21/3/2
f 20/1/3 5/2/3 15/3/3
f 32/1/4 1/2/4 27/3/4
f 15/4/5 29/5/5 48/6/5
f 12/4/6 32/5/6 39/6/6
f 4/4/6 33/5/6 24/6/6
f 14/4/6 36/5/6 33/6/6
f 13/4/6 39/5/6 36/6/6
f 7/4/5 42/5/5 21/6/5
f 17/4/5 45/5/5 42/6/5
f 16/4/5 48/5/5 45/6/5
f 8/1/3 17/2/3 7/3/3
f 18/1/3 16/2/3 17/3/3
f 19/1/3 15/2/3 16/3/3
f 2/1/1 11/2/1 1/3/1
f 12/1/1 10/2/1 11/3/1
f 13/1/1 9/2/1 10/3/1
f 47/4/5 11/5/5 10/6/5
f 46/4/5 50/5/5 47/6/5
f 45/4/5 49/5/5 46/6/5
f 44/4/5 10/5/5 9/6/5
f 43/4/5 47/5/5 44/6/5
f 42/4/5 46/5/5 43/6/5
f 23/4/5 9/5/5 3/6/5
f 22/4/5 44/5/5 23/6/5
f 21/4/5 43/5/5 22/6/5
f 38/4/6 20/5/6 19/6/6
f 37/4/6 41/5/6 38/6/6
f 36/4/6 40/5/6 37/6/6
f 35/4/6 19/5/6 18/6/6
f 34/4/6 38/5/6 35/6/6
f 33/4/6 37/5/6 34/6/6
f 26/4/6 18/5/6 8/6/6
f 25/4/6 35/5/6 26/6/6
f 24/4/6 34/5/6 25/6/6
f 41/4/6 6/5/6 20/6/6
f 40/4/6 30/5/6 41/6/6
f 39/4/6 31/5/6 40/6/6
f 50/4/5 1/5/5 11/6/5
f 49/4/5 27/5/5 50/6/5
f 48/4/5 28/5/5 49/6/5
f 6/1/4 29/2/4 5/3/4
f 30/1/4 28/2/4 29/3/4
f 31/1/4 27/2/4 28/3/4
f 4/1/2 23/2/2 3/3/2
f 24/1/2 22/2/2 23/3/2
f 25/1/2 21/2/2 22/3/2
f 14/1/1 4/7/1 3/2/1
f 26/1/2 8/7/2 7/2/2
f 20/1/3 6/7/3 5/2/3
f 32/1/4 2/7/4 1/2/4
f 15/4/5 5/8/5 29/5/5
f 12/4/6 2/8/6 32/5/6
f 4/4/6 14/8/6 33/5/6
f 14/4/6 13/8/6 36/5/6
f 13/4/6 12/8/6 39/5/6
f 7/4/5 17/8/5 42/5/5
f 17/4/5 16/8/5 45/5/5
f 16/4/5 15/8/5 48/5/5
f 8/1/3 18/7/3 17/2/3
f 18/1/3 19/7/3 16/2/3
f 19/1/3 20/7/3 15/2/3
f 2/1/1 12/7/1 11/2/1
f 12/1/1 13/7/1 10/2/1
f 13/1/1 14/7/1 9/2/1
f 47/4/5 50/8/5 11/5/5
f 46/4/5 49/8/5 50/5/5
f 45/4/5 48/8/5 49/5/5
f 44/4/5 47/8/5 10/5/5
f 43/4/5 46/8/5 47/5/5
f 42/4/5 45/8/5 46/5/5
f 23/4/5 44/8/5 9/5/5
f 22/4/5 43/8/5 44/5/5
f 21/4/5 42/8/5 43/5/5
f 38/4/6 41/8/6 20/5/6
f 37/4/6 40/8/6 41/5/6
f 36/4/6 39/8/6 40/5/6
f 35/4/6 38/8/6 19/5/6
f 34/4/6 37/8/6 38/5/6
f 33/4/6 36/8/6 37/5/6
f 26/4/6 35/8/6 18/5/6
f 25/4/6 34/8/6 35/5/6
f 24/4/6 33/8/6 34/5/6
f 41/4/6 30/8/6 6/5/6
f 40/4/6 31/8/6 30/5/6
f 39/4/6 32/8/6 31/5/6
f 50/4/5 27/8/5 1/5/5
f 49/4/5 28/8/5 27/5/5
f 48/4/5 29/8/5 28/5/5
f 6/1/4 30/7/4 29/2/4
f 30/1/4 31/7/4 28/2/4
f 31/1/4 32/7/4 27/2/4
f 4/1/2 24/7/2 23/2/2
f 24/1/2 25/7/2 22/2/2
f 25/1/2 26/7/2 21/2/2
