# Blender 4.0.2
# www.blender.org
mtllib mortar_wall_arch.mtl
o Cube.007
v 5.000000 6.000000 0.300000
v 5.000000 0.000000 0.300000
v 5.000000 6.000000 -0.300000
v 5.000000 0.000000 -0.300000
v -5.000000 6.000000 0.300000
v -5.000000 0.000000 0.300000
v -5.000000 6.000000 -0.300000
v -5.000000 0.000000 -0.300000
v -4.000000 6.000000 -0.300000
v -3.000000 6.000000 -0.300000
v -2.000000 6.000000 -0.300000
v -1.000000 6.000000 -0.300000
v 0.000000 6.000000 -0.300000
v 1.000000 6.000000 -0.300000
v 2.000000 6.000000 -0.300000
v 3.000000 6.000000 -0.300000
v 4.000000 6.000000 -0.300000
v 4.000000 0.000000 -0.300000
v 3.000000 0.000000 -0.300000
v 2.000000 0.000000 -0.300000
v -2.000000 2.000000 -0.500000
v -2.000000 1.000000 -0.500000
v -1.000000 3.000000 -0.500000
v -2.000000 0.000000 -0.300000
v -3.000000 0.000000 -0.300000
v -4.000000 0.000000 -0.300000
v 4.000000 6.000000 0.300000
v 3.000000 6.000000 0.300000
v 2.000000 6.000000 0.300000
v 1.000000 6.000000 0.300000
v 0.000000 6.000000 0.300000
v -1.000000 6.000000 0.300000
v -2.000000 6.000000 0.300000
v -3.000000 6.000000 0.300000
v -4.000000 6.000000 0.300000
v -4.000000 0.000000 0.300000
v -3.000000 0.000000 0.300000
v -2.000000 0.000000 0.300000
v 0.000000 3.000000 -0.500000
v 1.000000 3.000000 -0.500000
v 2.000000 2.000000 -0.500000
v 2.000000 0.000000 0.300000
v 3.000000 0.000000 0.300000
v 4.000000 0.000000 0.300000
v 5.000000 5.000000 0.300000
v 5.000000 4.000000 0.300000
v 5.000000 3.000000 0.300000
v 5.000000 2.000000 0.300000
v 5.000000 1.000000 0.300000
v 5.000000 1.000000 -0.300000
v 5.000000 2.000000 -0.300000
v 5.000000 3.000000 -0.300000
v 5.000000 4.000000 -0.300000
v 5.000000 5.000000 -0.300000
v -5.000000 1.000000 -0.300000
v -5.000000 2.000000 -0.300000
v -5.000000 3.000000 -0.300000
v -5.000000 4.000000 -0.300000
v -5.000000 5.000000 -0.300000
v -5.000000 1.000000 0.300000
v -5.000000 2.000000 0.300000
v -5.000000 3.000000 0.300000
v -5.000000 4.000000 0.300000
v -5.000000 5.000000 0.300000
v -4.000000 1.000000 0.300000
v -4.000000 2.000000 0.300000
v -4.000000 3.000000 0.300000
v -4.000000 4.000000 0.300000
v -4.000000 5.000000 0.300000
v -3.000000 1.000000 0.300000
v -3.000000 2.000000 0.300000
v -3.000000 3.000000 0.300000
v -3.000000 4.000000 0.300000
v -3.000000 5.000000 0.300000
v -2.000000 1.000000 0.300000
v -2.000000 2.000000 0.300000
v -2.000000 3.000000 0.300000
v -2.000000 4.000000 0.300000
v -2.000000 5.000000 0.300000
v 2.000000 1.000000 -0.500000
v -2.000000 2.000000 0.500000
v -1.000000 3.000000 0.300000
v -1.000000 4.000000 0.300000
v -1.000000 5.000000 0.300000
v -2.000000 0.000000 -0.500000
v 2.000000 0.000000 -0.500000
v 0.000000 3.000000 0.300000
v 0.000000 4.000000 0.300000
v 0.000000 5.000000 0.300000
v 2.000000 2.000000 0.500000
v -2.000000 1.000000 0.500000
v 1.000000 3.000000 0.300000
v 1.000000 4.000000 0.300000
v 1.000000 5.000000 0.300000
v 2.000000 1.000000 0.300000
v 2.000000 2.000000 0.300000
v 2.000000 3.000000 0.300000
v 2.000000 4.000000 0.300000
v 2.000000 5.000000 0.300000
v 3.000000 1.000000 0.300000
v 3.000000 2.000000 0.300000
v 3.000000 3.000000 0.300000
v 3.000000 4.000000 0.300000
v 3.000000 5.000000 0.300000
v 4.000000 1.000000 0.300000
v 4.000000 2.000000 0.300000
v 4.000000 3.000000 0.300000
v 4.000000 4.000000 0.300000
v 4.000000 5.000000 0.300000
v 4.000000 1.000000 -0.300000
v 4.000000 2.000000 -0.300000
v 4.000000 3.000000 -0.300000
v 4.000000 4.000000 -0.300000
v 4.000000 5.000000 -0.300000
v 3.000000 1.000000 -0.300000
v 3.000000 2.000000 -0.300000
v 3.000000 3.000000 -0.300000
v 3.000000 4.000000 -0.300000
v 3.000000 5.000000 -0.300000
v 2.000000 1.000000 -0.300000
v 2.000000 2.000000 -0.300000
v 2.000000 3.000000 -0.300000
v 2.000000 4.000000 -0.300000
v 2.000000 5.000000 -0.300000
v 2.000000 1.000000 0.500000
v 2.000000 0.000000 0.500000
v 1.000000 3.000000 -0.300000
v 1.000000 4.000000 -0.300000
v 1.000000 5.000000 -0.300000
v 1.000000 3.000000 0.500000
v 0.000000 3.000000 0.500000
v 0.000000 3.000000 -0.300000
v 0.000000 4.000000 -0.300000
v 0.000000 5.000000 -0.300000
v -1.000000 3.000000 0.500000
v -2.000000 0.000000 0.500000
v -1.000000 3.000000 -0.300000
v -1.000000 4.000000 -0.300000
v -1.000000 5.000000 -0.300000
v -2.000000 1.000000 -0.300000
v -2.000000 2.000000 -0.300000
v -2.000000 3.000000 -0.300000
v -2.000000 4.000000 -0.300000
v -2.000000 5.000000 -0.300000
v -3.000000 1.000000 -0.300000
v -3.000000 2.000000 -0.300000
v -3.000000 3.000000 -0.300000
v -3.000000 4.000000 -0.300000
v -3.000000 5.000000 -0.300000
v -4.000000 1.000000 -0.300000
v -4.000000 2.000000 -0.300000
v -4.000000 3.000000 -0.300000
v -4.000000 4.000000 -0.300000
v -4.000000 5.000000 -0.300000
v -1.755626 1.991402 -0.500000
v -1.755626 0.985065 -0.500000
v -0.877813 2.837084 -0.500000
v 0.000000 2.837084 -0.500000
v 0.877813 2.837084 -0.500000
v 1.755626 1.991402 -0.500000
v 1.755626 0.985065 -0.500000
v -1.755626 1.991402 0.500000
v -1.755626 0.023711 -0.500000
v 1.755626 0.023711 -0.500000
v 1.755626 1.991402 0.500000
v -1.755626 0.985065 0.500000
v 1.755626 0.985065 0.500000
v 1.755626 0.023711 0.500000
v 0.877813 2.837084 0.500000
v 0.000000 2.837084 0.500000
v -0.877813 2.837084 0.500000
v -1.755626 0.023711 0.500000
vn 1.0000 -0.0000 -0.0000
vn -0.0000 -0.0000 -1.0000
vn -1.0000 -0.0000 -0.0000
vn -0.0000 -0.0000 1.0000
vn -0.0000 1.0000 -0.0000
vn -0.0000 -1.0000 -0.0000
vn -0.7071 0.7071 -0.0000
vn 0.7071 0.7071 -0.0000
vn 0.6938 -0.7202 -0.0000
vn -0.6938 -0.7202 -0.0000
vn 0.0966 -0.9953 -0.0000
vn -0.0966 -0.9953 -0.0000
vt 1.000000 0.800000
vt 0.750000 0.950000
vt 0.750000 0.800000
vt 1.000000 0.750000
vt 0.750000 1.000000
vt 0.750000 0.750000
vt 0.904785 0.754939
vt 0.845215 0.996606
vt 0.904785 0.998702
vt 0.844024 1.001757
vt 0.905976 0.754254
vt 0.905976 0.997971
vt 0.844024 0.748243
vt 0.845215 0.754939
vt 0.904785 0.996606
vt 0.845215 0.998702
vt 0.967724 0.981539
vt 0.808089 0.768461
vt 0.993538 0.947121
vt 0.904785 0.751298
vt 0.905579 1.000132
vt 0.844421 0.755802
vt 0.905579 0.749868
vt 0.753118 0.894856
vt 0.967097 0.855143
vt 0.996882 0.894856
vt 0.996882 0.948129
vt 0.753118 0.996882
vt 0.753118 0.948129
vt 0.996882 0.948129
vt 0.753118 0.996882
vt 0.753118 0.948129
vt 0.948355 0.997258
vt 0.997258 0.752742
vt 0.948355 0.752742
vt 0.997258 0.997258
vt 1.000000 1.000000
vt 0.997258 0.752742
vt 0.948355 0.752742
vt 0.801645 0.997258
vt 0.752742 0.752742
vt 0.801645 0.752742
vt 0.752742 0.997258
vt 0.801645 0.752742
vt 0.753118 0.801871
vt 0.996882 0.753118
vt 0.996882 0.801871
vt 0.752742 0.752742
vt 0.753118 0.801871
vt 0.996882 0.753118
vt 0.996882 0.801871
vt 0.753118 0.855143
vt 0.782903 0.855143
vt 0.753118 0.894856
vt 0.996882 0.855143
vt 0.782276 0.981539
vt 0.941911 0.768461
vt 0.993538 0.770277
vt 0.756462 0.947121
vt 0.845215 0.751298
vt 0.844421 0.996394
vt 0.756462 0.770277
vt 0.904685 0.753526
vt 0.845315 0.996474
vt 0.904685 0.996474
vt 0.845315 0.753526
vt 1.000000 0.950000
vt 0.845215 0.751298
vt 0.905976 0.997971
vt 0.904785 0.751298
vt 0.844421 0.996394
vt 0.996882 0.996882
vt 0.996882 0.996882
vt 0.753118 0.753118
vt 0.753118 0.753118
s 0
usemtl Material
f 2/1/1 50/2/1 49/3/1
f 26/4/2 55/5/2 150/6/2
f 8/1/3 60/2/3 55/3/3
f 44/4/4 49/5/4 105/6/4
f 7/1/5 35/2/5 9/3/5
f 4/1/6 44/2/6 18/3/6
f 26/1/6 6/2/6 8/3/6
f 25/1/6 36/2/6 26/3/6
f 24/1/6 37/2/6 25/3/6
f 80/7/2 160/8/2 41/9/2
f 91/10/4 172/11/4 166/12/4
f 22/10/2 163/11/2 85/13/2
f 91/14/4 162/15/4 81/16/4
f 19/1/6 42/2/6 20/3/6
f 18/1/6 43/2/6 19/3/6
f 17/1/5 1/2/5 3/3/5
f 16/1/5 27/2/5 17/3/5
f 15/1/5 28/2/5 16/3/5
f 14/1/5 29/2/5 15/3/5
f 13/1/5 30/2/5 14/3/5
f 12/1/5 31/2/5 13/3/5
f 11/1/5 32/2/5 12/3/5
f 10/1/5 33/2/5 11/3/5
f 9/1/5 34/2/5 10/3/5
f 6/4/4 65/5/4 60/6/4
f 36/4/4 70/5/4 65/6/4
f 37/4/4 75/5/4 70/6/4
f 135/17/4 162/18/4 171/19/4
f 22/14/2 155/15/2 156/20/2
f 125/21/4 168/22/4 126/23/4
f 131/24/4 169/25/4 130/26/4
f 42/4/4 100/5/4 95/6/4
f 43/4/4 105/5/4 100/6/4
f 4/4/2 110/5/2 50/6/2
f 18/4/2 115/5/2 110/6/2
f 19/4/2 120/5/2 115/6/2
f 127/27/5 39/28/5 132/29/5
f 132/30/5 23/31/5 137/32/5
f 141/33/3 22/34/3 140/35/3
f 120/35/1 41/36/1 121/33/1
f 24/4/2 145/5/2 140/6/2
f 25/4/2 150/5/2 145/6/2
f 149/4/2 9/5/2 10/6/2
f 148/4/2 154/5/2 149/6/2
f 147/4/2 153/5/2 148/6/2
f 146/4/2 152/5/2 147/6/2
f 145/4/2 151/5/2 146/6/2
f 144/4/2 10/5/2 11/6/2
f 143/4/2 149/5/2 144/6/2
f 142/4/2 148/5/2 143/6/2
f 141/4/2 147/5/2 142/6/2
f 140/4/2 146/5/2 141/6/2
f 139/4/2 11/5/2 12/6/2
f 138/4/2 144/5/2 139/6/2
f 137/4/2 143/5/2 138/6/2
f 137/6/2 141/37/2 142/5/2
f 137/33/7 21/34/7 141/35/7
f 134/4/2 12/5/2 13/6/2
f 133/4/2 139/5/2 134/6/2
f 132/4/2 138/5/2 133/6/2
f 140/33/3 85/38/3 24/39/3
f 121/35/8 40/36/8 127/33/8
f 129/4/2 13/5/2 14/6/2
f 128/4/2 134/5/2 129/6/2
f 127/4/2 133/5/2 128/6/2
f 20/39/1 80/36/1 120/33/1
f 95/40/1 126/41/1 42/42/1
f 124/4/2 14/5/2 15/6/2
f 123/4/2 129/5/2 124/6/2
f 122/4/2 128/5/2 123/6/2
f 122/6/2 121/4/2 127/5/2
f 38/42/3 91/43/3 75/40/3
f 119/4/2 15/5/2 16/6/2
f 118/4/2 124/5/2 119/6/2
f 117/4/2 123/5/2 118/6/2
f 116/4/2 122/5/2 117/6/2
f 115/4/2 121/5/2 116/6/2
f 114/4/2 16/5/2 17/6/2
f 113/4/2 119/5/2 114/6/2
f 112/4/2 118/5/2 113/6/2
f 111/4/2 117/5/2 112/6/2
f 110/4/2 116/5/2 111/6/2
f 54/4/2 17/5/2 3/6/2
f 53/4/2 114/5/2 54/6/2
f 52/4/2 113/5/2 53/6/2
f 51/4/2 112/5/2 52/6/2
f 50/4/2 111/5/2 51/6/2
f 104/4/4 27/5/4 28/6/4
f 103/4/4 109/5/4 104/6/4
f 102/4/4 108/5/4 103/6/4
f 101/4/4 107/5/4 102/6/4
f 100/4/4 106/5/4 101/6/4
f 99/4/4 28/5/4 29/6/4
f 98/4/4 104/5/4 99/6/4
f 97/4/4 103/5/4 98/6/4
f 96/4/4 102/5/4 97/6/4
f 95/4/4 101/5/4 96/6/4
f 94/4/4 29/5/4 30/6/4
f 93/4/4 99/5/4 94/6/4
f 92/4/4 98/5/4 93/6/4
f 92/6/4 96/37/4 97/5/4
f 76/44/7 135/43/7 82/40/7
f 89/4/4 30/5/4 31/6/4
f 88/4/4 94/5/4 89/6/4
f 87/4/4 93/5/4 88/6/4
f 82/45/5 131/46/5 87/47/5
f 92/40/8 90/48/8 96/44/8
f 84/4/4 31/5/4 32/6/4
f 83/4/4 89/5/4 84/6/4
f 82/4/4 88/5/4 83/6/4
f 87/49/5 130/50/5 92/51/5
f 96/40/1 125/48/1 95/44/1
f 79/4/4 32/5/4 33/6/4
f 78/4/4 84/5/4 79/6/4
f 77/4/4 83/5/4 78/6/4
f 77/6/4 76/4/4 82/5/4
f 75/44/3 81/43/3 76/40/3
f 74/4/4 33/5/4 34/6/4
f 73/4/4 79/5/4 74/6/4
f 72/4/4 78/5/4 73/6/4
f 71/4/4 77/5/4 72/6/4
f 70/4/4 76/5/4 71/6/4
f 69/4/4 34/5/4 35/6/4
f 68/4/4 74/5/4 69/6/4
f 67/4/4 73/5/4 68/6/4
f 66/4/4 72/5/4 67/6/4
f 65/4/4 71/5/4 66/6/4
f 64/4/4 35/5/4 5/6/4
f 63/4/4 69/5/4 64/6/4
f 62/4/4 68/5/4 63/6/4
f 61/4/4 67/5/4 62/6/4
f 60/4/4 66/5/4 61/6/4
f 109/4/4 1/5/4 27/6/4
f 108/4/4 45/5/4 109/6/4
f 107/4/4 46/5/4 108/6/4
f 106/4/4 47/5/4 107/6/4
f 105/4/4 48/5/4 106/6/4
f 59/1/3 5/2/3 7/3/3
f 58/1/3 64/2/3 59/3/3
f 57/1/3 63/2/3 58/3/3
f 56/1/3 62/2/3 57/3/3
f 55/1/3 61/2/3 56/3/3
f 154/4/2 7/5/2 9/6/2
f 153/4/2 59/5/2 154/6/2
f 152/4/2 58/5/2 153/6/2
f 151/4/2 57/5/2 152/6/2
f 150/4/2 56/5/2 151/6/2
f 45/1/1 3/2/1 1/3/1
f 46/1/1 54/2/1 45/3/1
f 47/1/1 53/2/1 46/3/1
f 48/1/1 52/2/1 47/3/1
f 49/1/1 51/2/1 48/3/1
f 39/24/2 159/25/2 158/52/2
f 39/26/2 157/53/2 23/54/2
f 131/26/4 171/53/4 170/55/4
f 130/56/4 165/57/4 90/58/4
f 40/56/2 160/57/2 159/59/2
f 125/7/4 165/8/4 167/60/4
f 80/21/2 164/22/2 161/61/2
f 23/17/2 155/18/2 21/62/2
f 171/4/9 155/5/9 157/6/9
f 170/4/6 157/5/6 158/6/6
f 169/4/6 158/5/6 159/6/6
f 160/4/10 169/5/10 159/6/10
f 160/4/3 167/5/3 165/6/3
f 164/4/3 167/5/3 161/6/3
f 162/4/1 156/5/1 155/6/1
f 166/4/1 163/5/1 156/6/1
f 172/63/11 85/64/11 163/65/11
f 164/64/12 126/63/12 168/66/12
f 2/1/1 4/67/1 50/2/1
f 26/4/2 8/37/2 55/5/2
f 8/1/3 6/67/3 60/2/3
f 44/4/4 2/37/4 49/5/4
f 7/1/5 5/67/5 35/2/5
f 4/1/6 2/67/6 44/2/6
f 26/1/6 36/67/6 6/2/6
f 25/1/6 37/67/6 36/2/6
f 24/1/6 38/67/6 37/2/6
f 80/7/2 161/68/2 160/8/2
f 91/10/4 136/13/4 172/11/4
f 22/10/2 156/69/2 163/11/2
f 91/14/4 166/70/4 162/15/4
f 19/1/6 43/67/6 42/2/6
f 18/1/6 44/67/6 43/2/6
f 17/1/5 27/67/5 1/2/5
f 16/1/5 28/67/5 27/2/5
f 15/1/5 29/67/5 28/2/5
f 14/1/5 30/67/5 29/2/5
f 13/1/5 31/67/5 30/2/5
f 12/1/5 32/67/5 31/2/5
f 11/1/5 33/67/5 32/2/5
f 10/1/5 34/67/5 33/2/5
f 9/1/5 35/67/5 34/2/5
f 6/4/4 36/37/4 65/5/4
f 36/4/4 37/37/4 70/5/4
f 37/4/4 38/37/4 75/5/4
f 135/17/4 81/62/4 162/18/4
f 22/14/2 21/16/2 155/15/2
f 125/21/4 167/71/4 168/22/4
f 131/24/4 170/52/4 169/25/4
f 42/4/4 43/37/4 100/5/4
f 43/4/4 44/37/4 105/5/4
f 4/4/2 18/37/2 110/5/2
f 18/4/2 19/37/2 115/5/2
f 19/4/2 20/37/2 120/5/2
f 127/27/5 40/72/5 39/28/5
f 132/30/5 39/73/5 23/31/5
f 141/33/3 21/36/3 22/34/3
f 120/35/1 80/34/1 41/36/1
f 24/4/2 25/37/2 145/5/2
f 25/4/2 26/37/2 150/5/2
f 149/4/2 154/37/2 9/5/2
f 148/4/2 153/37/2 154/5/2
f 147/4/2 152/37/2 153/5/2
f 146/4/2 151/37/2 152/5/2
f 145/4/2 150/37/2 151/5/2
f 144/4/2 149/37/2 10/5/2
f 143/4/2 148/37/2 149/5/2
f 142/4/2 147/37/2 148/5/2
f 141/4/2 146/37/2 147/5/2
f 140/4/2 145/37/2 146/5/2
f 139/4/2 144/37/2 11/5/2
f 138/4/2 143/37/2 144/5/2
f 137/4/2 142/37/2 143/5/2
f 137/33/7 23/36/7 21/34/7
f 134/4/2 139/37/2 12/5/2
f 133/4/2 138/37/2 139/5/2
f 132/4/2 137/37/2 138/5/2
f 140/33/3 22/36/3 85/38/3
f 121/35/8 41/34/8 40/36/8
f 129/4/2 134/37/2 13/5/2
f 128/4/2 133/37/2 134/5/2
f 127/4/2 132/37/2 133/5/2
f 20/39/1 86/38/1 80/36/1
f 95/40/1 125/43/1 126/41/1
f 124/4/2 129/37/2 14/5/2
f 123/4/2 128/37/2 129/5/2
f 122/4/2 127/37/2 128/5/2
f 38/42/3 136/41/3 91/43/3
f 119/4/2 124/37/2 15/5/2
f 118/4/2 123/37/2 124/5/2
f 117/4/2 122/37/2 123/5/2
f 116/4/2 121/37/2 122/5/2
f 115/4/2 120/37/2 121/5/2
f 114/4/2 119/37/2 16/5/2
f 113/4/2 118/37/2 119/5/2
f 112/4/2 117/37/2 118/5/2
f 111/4/2 116/37/2 117/5/2
f 110/4/2 115/37/2 116/5/2
f 54/4/2 114/37/2 17/5/2
f 53/4/2 113/37/2 114/5/2
f 52/4/2 112/37/2 113/5/2
f 51/4/2 111/37/2 112/5/2
f 50/4/2 110/37/2 111/5/2
f 104/4/4 109/37/4 27/5/4
f 103/4/4 108/37/4 109/5/4
f 102/4/4 107/37/4 108/5/4
f 101/4/4 106/37/4 107/5/4
f 100/4/4 105/37/4 106/5/4
f 99/4/4 104/37/4 28/5/4
f 98/4/4 103/37/4 104/5/4
f 97/4/4 102/37/4 103/5/4
f 96/4/4 101/37/4 102/5/4
f 95/4/4 100/37/4 101/5/4
f 94/4/4 99/37/4 29/5/4
f 93/4/4 98/37/4 99/5/4
f 92/4/4 97/37/4 98/5/4
f 76/44/7 81/48/7 135/43/7
f 89/4/4 94/37/4 30/5/4
f 88/4/4 93/37/4 94/5/4
f 87/4/4 92/37/4 93/5/4
f 82/45/5 135/74/5 131/46/5
f 92/40/8 130/43/8 90/48/8
f 84/4/4 89/37/4 31/5/4
f 83/4/4 88/37/4 89/5/4
f 82/4/4 87/37/4 88/5/4
f 87/49/5 131/75/5 130/50/5
f 96/40/1 90/43/1 125/48/1
f 79/4/4 84/37/4 32/5/4
f 78/4/4 83/37/4 84/5/4
f 77/4/4 82/37/4 83/5/4
f 75/44/3 91/48/3 81/43/3
f 74/4/4 79/37/4 33/5/4
f 73/4/4 78/37/4 79/5/4
f 72/4/4 77/37/4 78/5/4
f 71/4/4 76/37/4 77/5/4
f 70/4/4 75/37/4 76/5/4
f 69/4/4 74/37/4 34/5/4
f 68/4/4 73/37/4 74/5/4
f 67/4/4 72/37/4 73/5/4
f 66/4/4 71/37/4 72/5/4
f 65/4/4 70/37/4 71/5/4
f 64/4/4 69/37/4 35/5/4
f 63/4/4 68/37/4 69/5/4
f 62/4/4 67/37/4 68/5/4
f 61/4/4 66/37/4 67/5/4
f 60/4/4 65/37/4 66/5/4
f 109/4/4 45/37/4 1/5/4
f 108/4/4 46/37/4 45/5/4
f 107/4/4 47/37/4 46/5/4
f 106/4/4 48/37/4 47/5/4
f 105/4/4 49/37/4 48/5/4
f 59/1/3 64/67/3 5/2/3
f 58/1/3 63/67/3 64/2/3
f 57/1/3 62/67/3 63/2/3
f 56/1/3 61/67/3 62/2/3
f 55/1/3 60/67/3 61/2/3
f 154/4/2 59/37/2 7/5/2
f 153/4/2 58/37/2 59/5/2
f 152/4/2 57/37/2 58/5/2
f 151/4/2 56/37/2 57/5/2
f 150/4/2 55/37/2 56/5/2
f 45/1/1 54/67/1 3/2/1
f 46/1/1 53/67/1 54/2/1
f 47/1/1 52/67/1 53/2/1
f 48/1/1 51/67/1 52/2/1
f 49/1/1 50/67/1 51/2/1
f 39/24/2 40/26/2 159/25/2
f 39/26/2 158/55/2 157/53/2
f 131/26/4 135/54/4 171/53/4
f 130/56/4 169/59/4 165/57/4
f 40/56/2 41/58/2 160/57/2
f 125/7/4 90/9/4 165/8/4
f 80/21/2 86/23/2 164/22/2
f 23/17/2 157/19/2 155/18/2
f 171/4/9 162/37/9 155/5/9
f 170/4/6 171/37/6 157/5/6
f 169/4/6 170/37/6 158/5/6
f 160/4/10 165/37/10 169/5/10
f 160/4/3 161/37/3 167/5/3
f 164/4/3 168/37/3 167/5/3
f 162/4/1 166/37/1 156/5/1
f 166/4/1 172/37/1 163/5/1
f 172/63/11 136/66/11 85/64/11
f 164/64/12 86/65/12 126/63/12
