# Blender 4.0.2
# www.blender.org
mtllib mortar_wall.mtl
o Cube.007
v 5.000000 6.000000 0.300000
v 5.000000 0.000000 0.300000
v 5.000000 6.000000 -0.300000
v 5.000000 0.000000 -0.300000
v -5.000000 6.000000 0.300000
v -5.000000 0.000000 0.300000
v -5.000000 6.000000 -0.300000
v -5.000000 0.000000 -0.300000
v -4.000000 6.000000 -0.300000
v -3.000000 6.000000 -0.300000
v -2.000000 6.000000 -0.300000
v -1.000000 6.000000 -0.300000
v 0.000000 6.000000 -0.300000
v 1.000000 6.000000 -0.300000
v 2.000000 6.000000 -0.300000
v 3.000000 6.000000 -0.300000
v 4.000000 6.000000 -0.300000
v 4.000000 0.000000 -0.300000
v 3.000000 0.000000 -0.300000
v 2.000000 0.000000 -0.300000
v 1.000000 0.000000 -0.300000
v 0.000000 0.000000 -0.300000
v -1.000000 0.000000 -0.300000
v -2.000000 0.000000 -0.300000
v -3.000000 0.000000 -0.300000
v -4.000000 0.000000 -0.300000
v 4.000000 6.000000 0.300000
v 3.000000 6.000000 0.300000
v 2.000000 6.000000 0.300000
v 1.000000 6.000000 0.300000
v 0.000000 6.000000 0.300000
v -1.000000 6.000000 0.300000
v -2.000000 6.000000 0.300000
v -3.000000 6.000000 0.300000
v -4.000000 6.000000 0.300000
v -4.000000 0.000000 0.300000
v -3.000000 0.000000 0.300000
v -2.000000 0.000000 0.300000
v -1.000000 0.000000 0.300000
v 0.000000 0.000000 0.300000
v 1.000000 0.000000 0.300000
v 2.000000 0.000000 0.300000
v 3.000000 0.000000 0.300000
v 4.000000 0.000000 0.300000
v 5.000000 5.000000 0.300000
v 5.000000 4.000000 0.300000
v 5.000000 3.000000 0.300000
v 5.000000 2.000000 0.300000
v 5.000000 1.000000 0.300000
v 5.000000 1.000000 -0.300000
v 5.000000 2.000000 -0.300000
v 5.000000 3.000000 -0.300000
v 5.000000 4.000000 -0.300000
v 5.000000 5.000000 -0.300000
v -5.000000 1.000000 -0.300000
v -5.000000 2.000000 -0.300000
v -5.000000 3.000000 -0.300000
v -5.000000 4.000000 -0.300000
v -5.000000 5.000000 -0.300000
v -5.000000 1.000000 0.300000
v -5.000000 2.000000 0.300000
v -5.000000 3.000000 0.300000
v -5.000000 4.000000 0.300000
v -5.000000 5.000000 0.300000
v -4.000000 1.000000 0.300000
v -4.000000 2.000000 0.300000
v -4.000000 3.000000 0.300000
v -4.000000 4.000000 0.300000
v -4.000000 5.000000 0.300000
v -3.000000 1.000000 0.300000
v -3.000000 2.000000 0.300000
v -3.000000 3.000000 0.300000
v -3.000000 4.000000 0.300000
v -3.000000 5.000000 0.300000
v -2.000000 1.000000 0.300000
v -2.000000 2.000000 0.300000
v -2.000000 3.000000 0.300000
v -2.000000 4.000000 0.300000
v -2.000000 5.000000 0.300000
v -1.000000 1.000000 0.300000
v -1.000000 2.000000 0.300000
v -1.000000 3.000000 0.300000
v -1.000000 4.000000 0.300000
v -1.000000 5.000000 0.300000
v 0.000000 1.000000 0.300000
v 0.000000 2.000000 0.300000
v 0.000000 3.000000 0.300000
v 0.000000 4.000000 0.300000
v 0.000000 5.000000 0.300000
v 1.000000 1.000000 0.300000
v 1.000000 2.000000 0.300000
v 1.000000 3.000000 0.300000
v 1.000000 4.000000 0.300000
v 1.000000 5.000000 0.300000
v 2.000000 1.000000 0.300000
v 2.000000 2.000000 0.300000
v 2.000000 3.000000 0.300000
v 2.000000 4.000000 0.300000
v 2.000000 5.000000 0.300000
v 3.000000 1.000000 0.300000
v 3.000000 2.000000 0.300000
v 3.000000 3.000000 0.300000
v 3.000000 4.000000 0.300000
v 3.000000 5.000000 0.300000
v 4.000000 1.000000 0.300000
v 4.000000 2.000000 0.300000
v 4.000000 3.000000 0.300000
v 4.000000 4.000000 0.300000
v 4.000000 5.000000 0.300000
v 4.000000 1.000000 -0.300000
v 4.000000 2.000000 -0.300000
v 4.000000 3.000000 -0.300000
v 4.000000 4.000000 -0.300000
v 4.000000 5.000000 -0.300000
v 3.000000 1.000000 -0.300000
v 3.000000 2.000000 -0.300000
v 3.000000 3.000000 -0.300000
v 3.000000 4.000000 -0.300000
v 3.000000 5.000000 -0.300000
v 2.000000 1.000000 -0.300000
v 2.000000 2.000000 -0.300000
v 2.000000 3.000000 -0.300000
v 2.000000 4.000000 -0.300000
v 2.000000 5.000000 -0.300000
v 1.000000 1.000000 -0.300000
v 1.000000 2.000000 -0.300000
v 1.000000 3.000000 -0.300000
v 1.000000 4.000000 -0.300000
v 1.000000 5.000000 -0.300000
v 0.000000 1.000000 -0.300000
v 0.000000 2.000000 -0.300000
v 0.000000 3.000000 -0.300000
v 0.000000 4.000000 -0.300000
v 0.000000 5.000000 -0.300000
v -1.000000 1.000000 -0.300000
v -1.000000 2.000000 -0.300000
v -1.000000 3.000000 -0.300000
v -1.000000 4.000000 -0.300000
v -1.000000 5.000000 -0.300000
v -2.000000 1.000000 -0.300000
v -2.000000 2.000000 -0.300000
v -2.000000 3.000000 -0.300000
v -2.000000 4.000000 -0.300000
v -2.000000 5.000000 -0.300000
v -3.000000 1.000000 -0.300000
v -3.000000 2.000000 -0.300000
v -3.000000 3.000000 -0.300000
v -3.000000 4.000000 -0.300000
v -3.000000 5.000000 -0.300000
v -4.000000 1.000000 -0.300000
v -4.000000 2.000000 -0.300000
v -4.000000 3.000000 -0.300000
v -4.000000 4.000000 -0.300000
v -4.000000 5.000000 -0.300000
vn 1.0000 -0.0000 -0.0000
vn -0.0000 -0.0000 -1.0000
vn -1.0000 -0.0000 -0.0000
vn -0.0000 -0.0000 1.0000
vn -0.0000 1.0000 -0.0000
vn -0.0000 -1.0000 -0.0000
vt 1.000000 0.800000
vt 0.750000 0.950000
vt 0.750000 0.800000
vt 1.000000 0.750000
vt 0.750000 1.000000
vt 0.750000 0.750000
vt 1.000000 0.950000
vt 1.000000 1.000000
s 0
usemtl Material
f 2/1/1 50/2/1 49/3/1
f 26/4/2 55/5/2 150/6/2
f 8/1/3 60/2/3 55/3/3
f 44/4/4 49/5/4 105/6/4
f 7/1/5 35/2/5 9/3/5
f 4/1/6 44/2/6 18/3/6
f 26/1/6 6/2/6 8/3/6
f 25/1/6 36/2/6 26/3/6
f 24/1/6 37/2/6 25/3/6
f 23/1/6 38/2/6 24/3/6
f 22/1/6 39/2/6 23/3/6
f 21/1/6 40/2/6 22/3/6
f 20/1/6 41/2/6 21/3/6
f 19/1/6 42/2/6 20/3/6
f 18/1/6 43/2/6 19/3/6
f 17/1/5 1/2/5 3/3/5
f 16/1/5 27/2/5 17/3/5
f 15/1/5 28/2/5 16/3/5
f 14/1/5 29/2/5 15/3/5
f 13/1/5 30/2/5 14/3/5
f 12/1/5 31/2/5 13/3/5
f 11/1/5 32/2/5 12/3/5
f 10/1/5 33/2/5 11/3/5
f 9/1/5 34/2/5 10/3/5
f 6/4/4 65/5/4 60/6/4
f 36/4/4 70/5/4 65/6/4
f 37/4/4 75/5/4 70/6/4
f 38/4/4 80/5/4 75/6/4
f 39/4/4 85/5/4 80/6/4
f 40/4/4 90/5/4 85/6/4
f 41/4/4 95/5/4 90/6/4
f 42/4/4 100/5/4 95/6/4
f 43/4/4 105/5/4 100/6/4
f 4/4/2 110/5/2 50/6/2
f 18/4/2 115/5/2 110/6/2
f 19/4/2 120/5/2 115/6/2
f 20/4/2 125/5/2 120/6/2
f 21/4/2 130/5/2 125/6/2
f 22/4/2 135/5/2 130/6/2
f 23/4/2 140/5/2 135/6/2
f 24/4/2 145/5/2 140/6/2
f 25/4/2 150/5/2 145/6/2
f 149/4/2 9/5/2 10/6/2
f 148/4/2 154/5/2 149/6/2
f 147/4/2 153/5/2 148/6/2
f 146/4/2 152/5/2 147/6/2
f 145/4/2 151/5/2 146/6/2
f 144/4/2 10/5/2 11/6/2
f 143/4/2 149/5/2 144/6/2
f 142/4/2 148/5/2 143/6/2
f 141/4/2 147/5/2 142/6/2
f 140/4/2 146/5/2 141/6/2
f 139/4/2 11/5/2 12/6/2
f 138/4/2 144/5/2 139/6/2
f 137/4/2 143/5/2 138/6/2
f 136/4/2 142/5/2 137/6/2
f 135/4/2 141/5/2 136/6/2
f 134/4/2 12/5/2 13/6/2
f 133/4/2 139/5/2 134/6/2
f 132/4/2 138/5/2 133/6/2
f 131/4/2 137/5/2 132/6/2
f 130/4/2 136/5/2 131/6/2
f 129/4/2 13/5/2 14/6/2
f 128/4/2 134/5/2 129/6/2
f 127/4/2 133/5/2 128/6/2
f 126/4/2 132/5/2 127/6/2
f 125/4/2 131/5/2 126/6/2
f 124/4/2 14/5/2 15/6/2
f 123/4/2 129/5/2 124/6/2
f 122/4/2 128/5/2 123/6/2
f 121/4/2 127/5/2 122/6/2
f 120/4/2 126/5/2 121/6/2
f 119/4/2 15/5/2 16/6/2
f 118/4/2 124/5/2 119/6/2
f 117/4/2 123/5/2 118/6/2
f 116/4/2 122/5/2 117/6/2
f 115/4/2 121/5/2 116/6/2
f 114/4/2 16/5/2 17/6/2
f 113/4/2 119/5/2 114/6/2
f 112/4/2 118/5/2 113/6/2
f 111/4/2 117/5/2 112/6/2
f 110/4/2 116/5/2 111/6/2
f 54/4/2 17/5/2 3/6/2
f 53/4/2 114/5/2 54/6/2
f 52/4/2 113/5/2 53/6/2
f 51/4/2 112/5/2 52/6/2
f 50/4/2 111/5/2 51/6/2
f 104/4/4 27/5/4 28/6/4
f 103/4/4 109/5/4 104/6/4
f 102/4/4 108/5/4 103/6/4
f 101/4/4 107/5/4 102/6/4
f 100/4/4 106/5/4 101/6/4
f 99/4/4 28/5/4 29/6/4
f 98/4/4 104/5/4 99/6/4
f 97/4/4 103/5/4 98/6/4
f 96/4/4 102/5/4 97/6/4
f 95/4/4 101/5/4 96/6/4
f 94/4/4 29/5/4 30/6/4
f 93/4/4 99/5/4 94/6/4
f 92/4/4 98/5/4 93/6/4
f 91/4/4 97/5/4 92/6/4
f 90/4/4 96/5/4 91/6/4
f 89/4/4 30/5/4 31/6/4
f 88/4/4 94/5/4 89/6/4
f 87/4/4 93/5/4 88/6/4
f 86/4/4 92/5/4 87/6/4
f 85/4/4 91/5/4 86/6/4
f 84/4/4 31/5/4 32/6/4
f 83/4/4 89/5/4 84/6/4
f 82/4/4 88/5/4 83/6/4
f 81/4/4 87/5/4 82/6/4
f 80/4/4 86/5/4 81/6/4
f 79/4/4 32/5/4 33/6/4
f 78/4/4 84/5/4 79/6/4
f 77/4/4 83/5/4 78/6/4
f 76/4/4 82/5/4 77/6/4
f 75/4/4 81/5/4 76/6/4
f 74/4/4 33/5/4 34/6/4
f 73/4/4 79/5/4 74/6/4
f 72/4/4 78/5/4 73/6/4
f 71/4/4 77/5/4 72/6/4
f 70/4/4 76/5/4 71/6/4
f 69/4/4 34/5/4 35/6/4
f 68/4/4 74/5/4 69/6/4
f 67/4/4 73/5/4 68/6/4
f 66/4/4 72/5/4 67/6/4
f 65/4/4 71/5/4 66/6/4
f 64/4/4 35/5/4 5/6/4
f 63/4/4 69/5/4 64/6/4
f 62/4/4 68/5/4 63/6/4
f 61/4/4 67/5/4 62/6/4
f 60/4/4 66/5/4 61/6/4
f 109/4/4 1/5/4 27/6/4
f 108/4/4 45/5/4 109/6/4
f 107/4/4 46/5/4 108/6/4
f 106/4/4 47/5/4 107/6/4
f 105/4/4 48/5/4 106/6/4
f 59/1/3 5/2/3 7/3/3
f 58/1/3 64/2/3 59/3/3
f 57/1/3 63/2/3 58/3/3
f 56/1/3 62/2/3 57/3/3
f 55/1/3 61/2/3 56/3/3
f 154/4/2 7/5/2 9/6/2
f 153/4/2 59/5/2 154/6/2
f 152/4/2 58/5/2 153/6/2
f 151/4/2 57/5/2 152/6/2
f 150/4/2 56/5/2 151/6/2
f 45/1/1 3/2/1 1/3/1
f 46/1/1 54/2/1 45/3/1
f 47/1/1 53/2/1 46/3/1
f 48/1/1 52/2/1 47/3/1
f 49/1/1 51/2/1 48/3/1
f 2/1/1 4/7/1 50/2/1
f 26/4/2 8/8/2 55/5/2
f 8/1/3 6/7/3 60/2/3
f 44/4/4 2/8/4 49/5/4
f 7/1/5 5/7/5 35/2/5
f 4/1/6 2/7/6 44/2/6
f 26/1/6 36/7/6 6/2/6
f 25/1/6 37/7/6 36/2/6
f 24/1/6 38/7/6 37/2/6
f 23/1/6 39/7/6 38/2/6
f 22/1/6 40/7/6 39/2/6
f 21/1/6 41/7/6 40/2/6
f 20/1/6 42/7/6 41/2/6
f 19/1/6 43/7/6 42/2/6
f 18/1/6 44/7/6 43/2/6
f 17/1/5 27/7/5 1/2/5
f 16/1/5 28/7/5 27/2/5
f 15/1/5 29/7/5 28/2/5
f 14/1/5 30/7/5 29/2/5
f 13/1/5 31/7/5 30/2/5
f 12/1/5 32/7/5 31/2/5
f 11/1/5 33/7/5 32/2/5
f 10/1/5 34/7/5 33/2/5
f 9/1/5 35/7/5 34/2/5
f 6/4/4 36/8/4 65/5/4
f 36/4/4 37/8/4 70/5/4
f 37/4/4 38/8/4 75/5/4
f 38/4/4 39/8/4 80/5/4
f 39/4/4 40/8/4 85/5/4
f 40/4/4 41/8/4 90/5/4
f 41/4/4 42/8/4 95/5/4
f 42/4/4 43/8/4 100/5/4
f 43/4/4 44/8/4 105/5/4
f 4/4/2 18/8/2 110/5/2
f 18/4/2 19/8/2 115/5/2
f 19/4/2 20/8/2 120/5/2
f 20/4/2 21/8/2 125/5/2
f 21/4/2 22/8/2 130/5/2
f 22/4/2 23/8/2 135/5/2
f 23/4/2 24/8/2 140/5/2
f 24/4/2 25/8/2 145/5/2
f 25/4/2 26/8/2 150/5/2
f 149/4/2 154/8/2 9/5/2
f 148/4/2 153/8/2 154/5/2
f 147/4/2 152/8/2 153/5/2
f 146/4/2 151/8/2 152/5/2
f 145/4/2 150/8/2 151/5/2
f 144/4/2 149/8/2 10/5/2
f 143/4/2 148/8/2 149/5/2
f 142/4/2 147/8/2 148/5/2
f 141/4/2 146/8/2 147/5/2
f 140/4/2 145/8/2 146/5/2
f 139/4/2 144/8/2 11/5/2
f 138/4/2 143/8/2 144/5/2
f 137/4/2 142/8/2 143/5/2
f 136/4/2 141/8/2 142/5/2
f 135/4/2 140/8/2 141/5/2
f 134/4/2 139/8/2 12/5/2
f 133/4/2 138/8/2 139/5/2
f 132/4/2 137/8/2 138/5/2
f 131/4/2 136/8/2 137/5/2
f 130/4/2 135/8/2 136/5/2
f 129/4/2 134/8/2 13/5/2
f 128/4/2 133/8/2 134/5/2
f 127/4/2 132/8/2 133/5/2
f 126/4/2 131/8/2 132/5/2
f 125/4/2 130/8/2 131/5/2
f 124/4/2 129/8/2 14/5/2
f 123/4/2 128/8/2 129/5/2
f 122/4/2 127/8/2 128/5/2
f 121/4/2 126/8/2 127/5/2
f 120/4/2 125/8/2 126/5/2
f 119/4/2 124/8/2 15/5/2
f 118/4/2 123/8/2 124/5/2
f 117/4/2 122/8/2 123/5/2
f 116/4/2 121/8/2 122/5/2
f 115/4/2 120/8/2 121/5/2
f 114/4/2 119/8/2 16/5/2
f 113/4/2 118/8/2 119/5/2
f 112/4/2 117/8/2 118/5/2
f 111/4/2 116/8/2 117/5/2
f 110/4/2 115/8/2 116/5/2
f 54/4/2 114/8/2 17/5/2
f 53/4/2 113/8/2 114/5/2
f 52/4/2 112/8/2 113/5/2
f 51/4/2 111/8/2 112/5/2
f 50/4/2 110/8/2 111/5/2
f 104/4/4 109/8/4 27/5/4
f 103/4/4 108/8/4 109/5/4
f 102/4/4 107/8/4 108/5/4
f 101/4/4 106/8/4 107/5/4
f 100/4/4 105/8/4 106/5/4
f 99/4/4 104/8/4 28/5/4
f 98/4/4 103/8/4 104/5/4
f 97/4/4 102/8/4 103/5/4
f 96/4/4 101/8/4 102/5/4
f 95/4/4 100/8/4 101/5/4
f 94/4/4 99/8/4 29/5/4
f 93/4/4 98/8/4 99/5/4
f 92/4/4 97/8/4 98/5/4
f 91/4/4 96/8/4 97/5/4
f 90/4/4 95/8/4 96/5/4
f 89/4/4 94/8/4 30/5/4
f 88/4/4 93/8/4 94/5/4
f 87/4/4 92/8/4 93/5/4
f 86/4/4 91/8/4 92/5/4
f 85/4/4 90/8/4 91/5/4
f 84/4/4 89/8/4 31/5/4
f 83/4/4 88/8/4 89/5/4
f 82/4/4 87/8/4 88/5/4
f 81/4/4 86/8/4 87/5/4
f 80/4/4 85/8/4 86/5/4
f 79/4/4 84/8/4 32/5/4
f 78/4/4 83/8/4 84/5/4
f 77/4/4 82/8/4 83/5/4
f 76/4/4 81/8/4 82/5/4
f 75/4/4 80/8/4 81/5/4
f 74/4/4 79/8/4 33/5/4
f 73/4/4 78/8/4 79/5/4
f 72/4/4 77/8/4 78/5/4
f 71/4/4 76/8/4 77/5/4
f 70/4/4 75/8/4 76/5/4
f 69/4/4 74/8/4 34/5/4
f 68/4/4 73/8/4 74/5/4
f 67/4/4 72/8/4 73/5/4
f 66/4/4 71/8/4 72/5/4
f 65/4/4 70/8/4 71/5/4
f 64/4/4 69/8/4 35/5/4
f 63/4/4 68/8/4 69/5/4
f 62/4/4 67/8/4 68/5/4
f 61/4/4 66/8/4 67/5/4
f 60/4/4 65/8/4 66/5/4
f 109/4/4 45/8/4 1/5/4
f 108/4/4 46/8/4 45/5/4
f 107/4/4 47/8/4 46/5/4
f 106/4/4 48/8/4 47/5/4
f 105/4/4 49/8/4 48/5/4
f 59/1/3 64/7/3 5/2/3
f 58/1/3 63/7/3 64/2/3
f 57/1/3 62/7/3 63/2/3
f 56/1/3 61/7/3 62/2/3
f 55/1/3 60/7/3 61/2/3
f 154/4/2 59/8/2 7/5/2
f 153/4/2 58/8/2 59/5/2
f 152/4/2 57/8/2 58/5/2
f 151/4/2 56/8/2 57/5/2
f 150/4/2 55/8/2 56/5/2
f 45/1/1 54/7/1 3/2/1
f 46/1/1 53/7/1 54/2/1
f 47/1/1 52/7/1 53/2/1
f 48/1/1 51/7/1 52/2/1
f 49/1/1 50/7/1 51/2/1
