# Blender 4.0.2
# www.blender.org
mtllib stairs_slab.mtl
o Cube.011
v -2.000000 -0.125000 2.000000
v -2.000000 0.125000 2.000000
v -2.000000 -0.125000 0.000000
v -2.000000 0.125000 0.000000
v 0.000000 -0.125000 2.000000
v 0.000000 0.125000 2.000000
v 0.000000 -0.125000 0.000000
v 0.000000 0.125000 0.000000
v -1.000000 -0.125000 0.000000
v -1.000000 0.125000 0.000000
v -1.000000 -0.125000 2.000000
v -1.000000 0.125000 2.000000
v -2.000000 -0.125000 1.000000
v -2.000000 0.125000 1.000000
v 0.000000 -0.125000 1.000000
v 0.000000 0.125000 1.000000
v -1.000000 0.125000 1.000000
v -1.000000 -0.125000 1.000000
v 2.000000 -0.125000 2.000000
v 2.000000 0.125000 2.000000
v 2.000000 -0.125000 0.000000
v 2.000000 0.125000 0.000000
v 1.000000 -0.125000 0.000000
v 1.000000 0.125000 0.000000
v 1.000000 -0.125000 2.000000
v 1.000000 0.125000 2.000000
v 2.000000 -0.125000 1.000000
v 2.000000 0.125000 1.000000
v 1.000000 0.125000 1.000000
v 1.000000 -0.125000 1.000000
v -2.000000 -0.125000 -2.000000
v -2.000000 0.125000 -2.000000
v 0.000000 -0.125000 -2.000000
v 0.000000 0.125000 -2.000000
v -1.000000 -0.125000 -2.000000
v -1.000000 0.125000 -2.000000
v -2.000000 -0.125000 -1.000000
v -2.000000 0.125000 -1.000000
v 0.000000 -0.125000 -1.000000
v 0.000000 0.125000 -1.000000
v -1.000000 0.125000 -1.000000
v -1.000000 -0.125000 -1.000000
v 2.000000 -0.125000 -2.000000
v 2.000000 0.125000 -2.000000
v 1.000000 -0.125000 -2.000000
v 1.000000 0.125000 -2.000000
v 2.000000 -0.125000 -1.000000
v 2.000000 0.125000 -1.000000
v 1.000000 0.125000 -1.000000
v 1.000000 -0.125000 -1.000000
vn -1.0000 -0.0000 -0.0000
vn -0.0000 -0.0000 1.0000
vn -0.0000 -1.0000 -0.0000
vn -0.0000 1.0000 -0.0000
vn 1.0000 -0.0000 -0.0000
vn -0.0000 -0.0000 -1.0000
vt 0.093750 1.000000
vt 0.156250 0.750000
vt 0.156250 1.000000
vt 0.000000 0.843750
vt 0.250000 0.906250
vt 0.000000 0.906250
vt 0.250000 0.750000
vt 0.000000 1.000000
vt 0.000000 0.750000
vt 0.093750 0.750000
vt 0.250000 0.843750
vt 0.250000 1.000000
s 0
usemtl Material
f 14/1/1 3/2/1 13/3/1
f 12/4/2 1/5/2 11/6/2
f 15/7/3 11/8/3 18/9/3
f 14/7/4 12/8/4 17/9/4
f 17/7/4 6/8/4 16/9/4
f 18/7/3 1/8/3 13/9/3
f 6/4/2 11/5/2 5/6/2
f 9/7/3 13/8/3 3/9/3
f 10/7/4 16/8/4 8/9/4
f 4/7/4 17/8/4 10/9/4
f 7/7/3 18/8/3 9/9/3
f 2/1/1 13/2/1 1/3/1
f 28/1/5 19/2/5 27/3/5
f 26/4/2 5/5/2 25/6/2
f 27/7/3 25/8/3 30/9/3
f 16/7/4 26/8/4 29/9/4
f 29/7/4 20/8/4 28/9/4
f 30/7/3 5/8/3 15/9/3
f 20/4/2 25/5/2 19/6/2
f 23/7/3 15/8/3 7/9/3
f 24/7/4 28/8/4 22/9/4
f 8/7/4 29/8/4 24/9/4
f 21/7/3 30/8/3 23/9/3
f 22/1/5 27/2/5 21/3/5
f 38/1/1 31/2/1 37/3/1
f 36/4/6 33/5/6 35/6/6
f 39/7/3 9/8/3 42/9/3
f 38/7/4 10/8/4 41/9/4
f 41/7/4 8/8/4 40/9/4
f 42/7/3 3/8/3 37/9/3
f 32/4/6 35/5/6 31/6/6
f 35/7/3 37/8/3 31/9/3
f 36/7/4 40/8/4 34/9/4
f 32/7/4 41/8/4 36/9/4
f 33/7/3 42/8/3 35/9/3
f 4/1/1 37/2/1 3/3/1
f 46/4/6 43/5/6 45/6/6
f 48/1/5 21/2/5 47/3/5
f 47/7/3 23/8/3 50/9/3
f 40/7/4 24/8/4 49/9/4
f 49/7/4 22/8/4 48/9/4
f 50/7/3 7/8/3 39/9/3
f 34/4/6 45/5/6 33/6/6
f 45/7/3 39/8/3 33/9/3
f 46/7/4 48/8/4 44/9/4
f 34/7/4 49/8/4 46/9/4
f 43/7/3 50/8/3 45/9/3
f 44/1/5 47/2/5 43/3/5
f 14/1/1 4/10/1 3/2/1
f 12/4/2 2/11/2 1/5/2
f 15/7/3 5/12/3 11/8/3
f 14/7/4 2/12/4 12/8/4
f 17/7/4 12/12/4 6/8/4
f 18/7/3 11/12/3 1/8/3
f 6/4/2 12/11/2 11/5/2
f 9/7/3 18/12/3 13/8/3
f 10/7/4 17/12/4 16/8/4
f 4/7/4 14/12/4 17/8/4
f 7/7/3 15/12/3 18/8/3
f 2/1/1 14/10/1 13/2/1
f 28/1/5 20/10/5 19/2/5
f 26/4/2 6/11/2 5/5/2
f 27/7/3 19/12/3 25/8/3
f 16/7/4 6/12/4 26/8/4
f 29/7/4 26/12/4 20/8/4
f 30/7/3 25/12/3 5/8/3
f 20/4/2 26/11/2 25/5/2
f 23/7/3 30/12/3 15/8/3
f 24/7/4 29/12/4 28/8/4
f 8/7/4 16/12/4 29/8/4
f 21/7/3 27/12/3 30/8/3
f 22/1/5 28/10/5 27/2/5
f 38/1/1 32/10/1 31/2/1
f 36/4/6 34/11/6 33/5/6
f 39/7/3 7/12/3 9/8/3
f 38/7/4 4/12/4 10/8/4
f 41/7/4 10/12/4 8/8/4
f 42/7/3 9/12/3 3/8/3
f 32/4/6 36/11/6 35/5/6
f 35/7/3 42/12/3 37/8/3
f 36/7/4 41/12/4 40/8/4
f 32/7/4 38/12/4 41/8/4
f 33/7/3 39/12/3 42/8/3
f 4/1/1 38/10/1 37/2/1
f 46/4/6 44/11/6 43/5/6
f 48/1/5 22/10/5 21/2/5
f 47/7/3 21/12/3 23/8/3
f 40/7/4 8/12/4 24/8/4
f 49/7/4 24/12/4 22/8/4
f 50/7/3 23/12/3 7/8/3
f 34/4/6 46/11/6 45/5/6
f 45/7/3 50/12/3 39/8/3
f 46/7/4 49/12/4 48/8/4
f 34/7/4 40/12/4 49/8/4
f 43/7/3 47/12/3 50/8/3
f 44/1/5 48/10/5 47/2/5
