# Blender 4.0.2
# www.blender.org
mtllib stone_wall.mtl
o Cube
v -2.000000 1.000000 0.100000
v -2.000000 2.000000 0.100000
v -2.000000 2.000000 -0.100000
v -2.000000 1.000000 -0.100000
v 2.000000 2.000000 -0.100000
v 2.000000 1.000000 -0.100000
v 2.000000 2.000000 0.100000
v 2.000000 1.000000 0.100000
v 1.000000 2.000000 0.100000
v 1.000000 1.000000 0.100000
v 0.000000 2.000000 0.100000
v 0.000000 1.000000 0.100000
v -1.000000 2.000000 0.100000
v -1.000000 1.000000 0.100000
v -1.000000 2.000000 -0.100000
v -1.000000 1.000000 -0.100000
v 0.000000 2.000000 -0.100000
v 0.000000 1.000000 -0.100000
v 1.000000 2.000000 -0.100000
v 1.000000 1.000000 -0.100000
v -2.000000 2.500000 0.100000
v -2.000000 2.500000 -0.100000
v 2.000000 2.500000 -0.100000
v 2.000000 2.500000 0.100000
v 1.000000 2.500000 0.100000
v 0.000000 2.500000 0.100000
v -1.000000 2.500000 0.100000
v -1.000000 2.500000 -0.100000
v 0.000000 2.500000 -0.100000
v 1.000000 2.500000 -0.100000
v -2.000000 0.500000 -0.100000
v 2.000000 0.500000 -0.100000
v 2.000000 0.500000 0.100000
v 1.000000 0.500000 0.100000
v 0.000000 0.500000 0.100000
v -1.000000 0.500000 0.100000
v -1.000000 0.500000 -0.100000
v 0.000000 0.500000 -0.100000
v 1.000000 0.500000 -0.100000
v -2.000000 0.500000 0.100000
v -2.108776 0.022211 -0.162152
v -2.108776 0.022211 0.162152
v -2.108776 2.485193 0.162152
v -2.108776 2.977789 0.162152
v -2.108776 2.977789 -0.162152
v -2.108776 0.514807 -0.162152
v -1.054388 0.022211 -0.162152
v 1.054388 2.977789 -0.162152
v 2.108776 2.977789 -0.162152
v 2.108776 0.514807 -0.162152
v 2.108776 0.022211 -0.162152
v 2.108776 0.022211 0.162152
v 2.108776 2.977789 0.162152
v 2.108776 0.514807 0.162152
v 1.054388 0.022211 0.162152
v -1.054388 2.977789 0.162152
v 1.054388 0.022211 -0.162152
v -0.000000 0.022211 -0.162152
v -1.054388 2.977789 -0.162152
v -0.000000 2.977789 -0.162152
v -1.054388 0.022211 0.162152
v -0.000000 0.022211 0.162152
v 1.054388 2.977789 0.162152
v -0.000000 2.977789 0.162152
v 1.054388 0.514807 0.162152
v -0.000000 0.514807 0.162152
v -1.054388 0.514807 0.162152
v -1.054388 0.514807 -0.162152
v -0.000000 0.514807 -0.162152
v 1.054388 0.514807 -0.162152
v -2.108776 2.485193 -0.162152
v 2.108776 2.485193 -0.162152
v 2.108776 2.485193 0.162152
v 1.054388 2.485193 0.162152
v -0.000000 2.485193 0.162152
v -1.054388 2.485193 0.162152
v -1.054388 2.485193 -0.162152
v -0.000000 2.485193 -0.162152
v 1.054388 2.485193 -0.162152
v -2.108776 0.514807 0.162152
vn -0.0000 -0.9728 0.2318
vn -0.0000 0.9728 -0.2318
vn 0.1349 -0.9909 -0.0000
vn -0.1349 0.9909 -0.0000
vn -0.1349 -0.9909 -0.0000
vn -0.0000 0.9728 0.2318
vn -0.0000 -0.0000 -1.0000
vn -0.0000 -0.0000 1.0000
vn 1.0000 -0.0000 -0.0000
vn -1.0000 -0.0000 -0.0000
vn -0.0000 -0.9728 -0.2318
vn 0.1349 0.9909 -0.0000
vn -0.0000 -1.0000 -0.0000
vn -0.0000 1.0000 -0.0000
vt 0.530212 0.896271
vt 0.731357 0.909492
vt 0.742926 0.896271
vt 0.719787 0.853729
vt 0.518644 0.840508
vt 0.742924 0.840508
vt 0.637395 0.852209
vt 0.612605 0.911956
vt 0.637395 0.897791
vt 0.517244 0.897791
vt 0.745151 0.911956
vt 0.745151 0.897791
vt 0.530212 0.853729
vt 0.731357 0.840508
vt 0.742926 0.853729
vt 0.719787 0.896271
vt 0.518644 0.909492
vt 0.742924 0.909492
vt 0.735629 0.898398
vt 0.501645 0.912941
vt 0.748355 0.912941
vt 0.613431 0.896271
vt 0.636569 0.840508
vt 0.636569 0.909492
vt 0.613431 0.853729
vt 0.501645 0.898398
vt 0.000000 0.750000
vt 0.250000 0.875000
vt 0.000000 0.875000
vt 0.250000 1.000000
vt 0.000000 1.000000
vt 0.112500 0.750000
vt 0.137500 0.875000
vt 0.112500 0.875000
vt 0.137500 1.000000
vt 0.112500 1.000000
vt 0.507076 0.896271
vt 0.507074 0.840508
vt 0.504849 0.911956
vt 0.612605 0.838044
vt 0.507076 0.853729
vt 0.507074 0.909492
vt 0.735629 0.851602
vt 0.501645 0.837059
vt 0.501645 0.851602
vt 0.517244 0.852209
vt 0.745151 0.838044
vt 0.745151 0.852209
vt 0.504849 0.838044
vt 0.748355 0.837059
vt 0.562500 0.750000
vt 0.687500 1.000000
vt 0.562500 1.000000
vt 0.500000 0.812500
vt 0.750000 0.937500
vt 0.500000 0.937500
vt 0.750000 0.843750
vt 0.500000 0.906250
vt 0.500000 0.843750
vt 0.250000 0.750000
vt 0.137500 0.750000
vt 0.687500 0.750000
vt 0.750000 0.812500
vt 0.750000 0.906250
s 0
usemtl Material
f 22/1/1 77/2/1 28/3/1
f 33/4/2 65/5/2 54/6/2
f 21/7/3 71/8/3 22/9/3
f 28/10/1 78/11/1 29/12/1
f 40/13/2 67/14/2 36/15/2
f 23/16/1 79/17/1 72/18/1
f 30/19/1 78/20/1 79/21/1
f 32/22/4 54/23/4 50/24/4
f 23/22/5 73/23/5 24/25/5
f 39/19/6 69/20/6 38/26/6
f 18/27/7 39/28/7 38/29/7
f 17/27/7 20/30/7 18/31/7
f 16/27/7 38/28/7 37/29/7
f 15/27/7 18/30/7 16/31/7
f 4/27/7 37/28/7 31/29/7
f 3/27/7 16/30/7 4/31/7
f 12/27/8 36/28/8 35/29/8
f 11/27/8 14/30/8 12/31/8
f 10/27/8 35/28/8 34/29/8
f 9/27/8 12/30/8 10/31/8
f 8/27/8 34/28/8 33/29/8
f 7/27/8 10/30/8 8/31/8
f 14/27/8 40/28/8 36/29/8
f 13/27/8 1/30/8 14/31/8
f 6/32/9 33/33/9 32/34/9
f 5/32/9 8/35/9 6/36/9
f 20/27/7 32/28/7 39/29/7
f 19/27/7 6/30/7 20/31/7
f 1/32/10 31/33/10 40/34/10
f 2/32/10 4/35/10 1/36/10
f 29/29/7 19/30/7 17/31/7
f 28/29/7 17/30/7 15/31/7
f 22/29/7 15/30/7 3/31/7
f 26/29/8 13/30/8 11/31/8
f 25/29/8 11/30/8 9/31/8
f 24/29/8 9/30/8 7/31/8
f 27/29/8 2/30/8 13/31/8
f 23/34/9 7/35/9 5/36/9
f 30/29/7 5/30/7 19/31/7
f 21/34/10 3/35/10 2/36/10
f 32/16/6 70/17/6 39/37/6
f 21/13/11 76/14/11 43/38/11
f 37/10/6 69/11/6 68/39/6
f 40/7/12 46/8/12 80/40/12
f 24/4/11 74/5/11 25/41/11
f 31/1/6 68/2/6 46/42/6
f 25/43/11 75/44/11 26/45/11
f 36/46/2 66/47/2 35/48/2
f 27/46/11 75/47/11 76/49/11
f 34/43/2 66/44/2 65/50/2
f 44/51/10 71/52/10 43/53/10
f 48/54/7 72/55/7 79/56/7
f 49/51/9 73/52/9 72/53/9
f 56/54/8 43/55/8 76/56/8
f 51/57/13 55/58/13 57/59/13
f 45/57/14 56/58/14 59/59/14
f 48/57/14 53/58/14 49/59/14
f 60/57/14 63/58/14 48/59/14
f 59/57/14 64/58/14 60/59/14
f 47/57/13 42/58/13 41/59/13
f 58/57/13 61/58/13 47/59/13
f 57/57/13 62/58/13 58/59/13
f 53/54/8 74/55/8 73/56/8
f 63/54/8 75/55/8 74/56/8
f 64/54/8 76/55/8 75/56/8
f 45/54/7 77/55/7 71/56/7
f 59/54/7 78/55/7 77/56/7
f 60/54/7 79/55/7 78/56/7
f 80/51/10 41/52/10 42/53/10
f 70/54/7 51/55/7 57/56/7
f 50/51/9 52/52/9 51/53/9
f 67/54/8 42/55/8 61/56/8
f 54/54/8 55/55/8 52/56/8
f 65/54/8 62/55/8 55/56/8
f 66/54/8 61/55/8 62/56/8
f 46/54/7 47/55/7 41/56/7
f 68/54/7 58/55/7 47/56/7
f 69/54/7 57/55/7 58/56/7
f 22/1/1 71/42/1 77/2/1
f 33/4/2 34/41/2 65/5/2
f 21/7/3 43/40/3 71/8/3
f 28/10/1 77/39/1 78/11/1
f 40/13/2 80/38/2 67/14/2
f 23/16/1 30/37/1 79/17/1
f 30/19/1 29/26/1 78/20/1
f 32/22/4 33/25/4 54/23/4
f 23/22/5 72/24/5 73/23/5
f 39/19/6 70/21/6 69/20/6
f 18/27/7 20/60/7 39/28/7
f 17/27/7 19/60/7 20/30/7
f 16/27/7 18/60/7 38/28/7
f 15/27/7 17/60/7 18/30/7
f 4/27/7 16/60/7 37/28/7
f 3/27/7 15/60/7 16/30/7
f 12/27/8 14/60/8 36/28/8
f 11/27/8 13/60/8 14/30/8
f 10/27/8 12/60/8 35/28/8
f 9/27/8 11/60/8 12/30/8
f 8/27/8 10/60/8 34/28/8
f 7/27/8 9/60/8 10/30/8
f 14/27/8 1/60/8 40/28/8
f 13/27/8 2/60/8 1/30/8
f 6/32/9 8/61/9 33/33/9
f 5/32/9 7/61/9 8/35/9
f 20/27/7 6/60/7 32/28/7
f 19/27/7 5/60/7 6/30/7
f 1/32/10 4/61/10 31/33/10
f 2/32/10 3/61/10 4/35/10
f 29/29/7 30/28/7 19/30/7
f 28/29/7 29/28/7 17/30/7
f 22/29/7 28/28/7 15/30/7
f 26/29/8 27/28/8 13/30/8
f 25/29/8 26/28/8 11/30/8
f 24/29/8 25/28/8 9/30/8
f 27/29/8 21/28/8 2/30/8
f 23/34/9 24/33/9 7/35/9
f 30/29/7 23/28/7 5/30/7
f 21/34/10 22/33/10 3/35/10
f 32/16/6 50/18/6 70/17/6
f 21/13/11 27/15/11 76/14/11
f 37/10/6 38/12/6 69/11/6
f 40/7/12 31/9/12 46/8/12
f 24/4/11 73/6/11 74/5/11
f 31/1/6 37/3/6 68/2/6
f 25/43/11 74/50/11 75/44/11
f 36/46/2 67/49/2 66/47/2
f 27/46/11 26/48/11 75/47/11
f 34/43/2 35/45/2 66/44/2
f 44/51/10 45/62/10 71/52/10
f 48/54/7 49/63/7 72/55/7
f 49/51/9 53/62/9 73/52/9
f 56/54/8 44/63/8 43/55/8
f 51/57/13 52/64/13 55/58/13
f 45/57/14 44/64/14 56/58/14
f 48/57/14 63/64/14 53/58/14
f 60/57/14 64/64/14 63/58/14
f 59/57/14 56/64/14 64/58/14
f 47/57/13 61/64/13 42/58/13
f 58/57/13 62/64/13 61/58/13
f 57/57/13 55/64/13 62/58/13
f 53/54/8 63/63/8 74/55/8
f 63/54/8 64/63/8 75/55/8
f 64/54/8 56/63/8 76/55/8
f 45/54/7 59/63/7 77/55/7
f 59/54/7 60/63/7 78/55/7
f 60/54/7 48/63/7 79/55/7
f 80/51/10 46/62/10 41/52/10
f 70/54/7 50/63/7 51/55/7
f 50/51/9 54/62/9 52/52/9
f 67/54/8 80/63/8 42/55/8
f 54/54/8 65/63/8 55/55/8
f 65/54/8 66/63/8 62/55/8
f 66/54/8 67/63/8 61/55/8
f 46/54/7 68/63/7 47/55/7
f 68/54/7 69/63/7 58/55/7
f 69/54/7 70/63/7 57/55/7
