# Blender 4.0.2
# www.blender.org
mtllib wood_wall.mtl
o Cube.004
v -2.000000 0.000000 0.200000
v -2.000000 3.000000 0.200000
v -2.000000 0.000000 -0.200000
v -2.000000 3.000000 -0.200000
v 2.000000 0.000000 0.200000
v 2.000000 3.000000 0.200000
v 2.000000 0.000000 -0.200000
v 2.000000 3.000000 -0.200000
v 1.000000 0.000000 -0.200000
v 0.000000 0.000000 -0.200000
v -1.000000 0.000000 -0.200000
v -1.000000 3.000000 -0.200000
v 0.000000 3.000000 -0.200000
v 1.000000 3.000000 -0.200000
v -1.000000 0.000000 0.200000
v 0.000000 0.000000 0.200000
v 1.000000 0.000000 0.200000
v 1.000000 3.000000 0.200000
v 0.000000 3.000000 0.200000
v -1.000000 3.000000 0.200000
v -2.000000 1.000000 0.200000
v -2.000000 2.000000 0.200000
v -2.000000 2.000000 -0.200000
v -2.000000 1.000000 -0.200000
v 2.000000 2.000000 -0.200000
v 2.000000 1.000000 -0.200000
v 2.000000 2.000000 0.200000
v 2.000000 1.000000 0.200000
v 1.000000 2.000000 0.200000
v 1.000000 1.000000 0.200000
v 0.000000 2.000000 0.200000
v 0.000000 1.000000 0.200000
v -1.000000 2.000000 0.200000
v -1.000000 1.000000 0.200000
v -1.000000 2.000000 -0.200000
v -1.000000 1.000000 -0.200000
v 0.000000 2.000000 -0.200000
v 0.000000 1.000000 -0.200000
v 1.000000 2.000000 -0.200000
v 1.000000 1.000000 -0.200000
v 1.333333 3.000000 -0.200000
v 1.666667 3.000000 -0.200000
v 1.333333 0.000000 0.200000
v 1.666667 0.000000 0.200000
v 1.666667 0.000000 -0.200000
v 1.333333 0.000000 -0.200000
v 1.666667 3.000000 0.200000
v 1.333333 3.000000 0.200000
v 1.666667 1.000000 0.200000
v 1.333333 1.000000 0.200000
v 1.666667 2.000000 0.200000
v 1.333333 2.000000 0.200000
v 1.333333 1.000000 -0.200000
v 1.666667 1.000000 -0.200000
v 1.333333 2.000000 -0.200000
v 1.666667 2.000000 -0.200000
v -1.333333 0.000000 -0.200000
v -1.666667 0.000000 -0.200000
v -1.333333 3.000000 0.200000
v -1.666667 3.000000 0.200000
v -1.666667 3.000000 -0.200000
v -1.333333 3.000000 -0.200000
v -1.666667 0.000000 0.200000
v -1.333333 0.000000 0.200000
v -1.666667 1.000000 -0.200000
v -1.333333 1.000000 -0.200000
v -1.666667 2.000000 -0.200000
v -1.333333 2.000000 -0.200000
v -1.333333 1.000000 0.200000
v -1.666667 1.000000 0.200000
v -1.333333 2.000000 0.200000
v -1.666667 2.000000 0.200000
v 1.333333 2.953193 -0.145262
v 1.666667 2.953193 -0.145262
v 1.333333 0.046807 0.145262
v 1.666667 0.046807 0.145262
v 1.666667 0.046807 -0.145262
v 1.333333 0.046807 -0.145262
v 1.666667 2.953193 0.145262
v 1.333333 2.953193 0.145262
v 1.666667 1.007514 0.145262
v 1.333333 1.007514 0.145262
v 1.666667 1.998545 0.145262
v 1.333333 1.998545 0.145262
v 1.333333 1.007514 -0.145262
v 1.666667 1.007514 -0.145262
v 1.333333 1.998545 -0.145262
v 1.666667 1.998545 -0.145262
v 0.666667 0.000000 -0.200000
v 0.333333 0.000000 -0.200000
v 0.333333 3.000000 -0.200000
v 0.666667 3.000000 -0.200000
v 0.333333 0.000000 0.200000
v 0.666667 0.000000 0.200000
v 0.666667 3.000000 0.200000
v 0.333333 3.000000 0.200000
v 0.333333 1.000000 -0.200000
v 0.666667 1.000000 -0.200000
v 0.333333 2.000000 -0.200000
v 0.666667 2.000000 -0.200000
v 0.666667 1.000000 0.200000
v 0.333333 1.000000 0.200000
v 0.666667 2.000000 0.200000
v 0.333333 2.000000 0.200000
v -0.333333 0.000000 -0.200000
v -0.666667 0.000000 -0.200000
v -0.666667 3.000000 -0.200000
v -0.333333 3.000000 -0.200000
v -0.666667 0.000000 0.200000
v -0.333333 0.000000 0.200000
v -0.333333 3.000000 0.200000
v -0.666667 3.000000 0.200000
v -0.666667 1.000000 -0.200000
v -0.333333 1.000000 -0.200000
v -0.666667 2.000000 -0.200000
v -0.333333 2.000000 -0.200000
v -0.333333 1.000000 0.200000
v -0.666667 1.000000 0.200000
v -0.333333 2.000000 0.200000
v -0.666667 2.000000 0.200000
v 0.666667 0.046807 -0.145262
v 0.333333 0.046807 -0.145262
v 0.333333 2.953193 -0.145262
v 0.666667 2.953193 -0.145262
v 0.333333 0.046807 0.145262
v 0.666667 0.046807 0.145262
v 0.666667 2.953193 0.145262
v 0.333333 2.953193 0.145262
v 0.333333 1.007514 -0.145262
v 0.666667 1.007514 -0.145262
v 0.333333 1.998545 -0.145262
v 0.666667 1.998545 -0.145262
v 0.666667 1.007514 0.145262
v 0.333333 1.007514 0.145262
v 0.666667 1.998545 0.145262
v 0.333333 1.998545 0.145262
v -0.333333 0.046807 -0.145262
v -0.666667 0.046807 -0.145262
v -0.666667 2.953193 -0.145262
v -0.333333 2.953193 -0.145262
v -0.666667 0.046807 0.145262
v -0.333333 0.046807 0.145262
v -0.333333 2.953193 0.145262
v -0.666667 2.953193 0.145262
v -0.666667 1.007514 -0.145262
v -0.333333 1.007514 -0.145262
v -0.666667 1.998545 -0.145262
v -0.333333 1.998545 -0.145262
v -0.333333 1.007514 0.145262
v -0.666667 1.007514 0.145262
v -0.333333 1.998545 0.145262
v -0.666667 1.998545 0.145262
v -1.333333 0.046807 -0.145262
v -1.666667 0.046807 -0.145262
v -1.333333 2.953193 0.145262
v -1.666667 2.953193 0.145262
v -1.666667 2.953193 -0.145262
v -1.333333 2.953193 -0.145262
v -1.666667 0.046807 0.145262
v -1.333333 0.046807 0.145262
v -1.666667 1.007514 -0.145262
v -1.333333 1.007514 -0.145262
v -1.666667 1.998545 -0.145262
v -1.333333 1.998545 -0.145262
v -1.333333 1.007514 0.145262
v -1.666667 1.007514 0.145262
v -1.333333 1.998545 0.145262
v -1.666667 1.998545 0.145262
vn -1.0000 -0.0000 -0.0000
vn -0.0000 -0.0000 -1.0000
vn 1.0000 -0.0000 -0.0000
vn -0.0000 -0.0000 1.0000
vn -0.0000 -1.0000 -0.0000
vn -0.0000 1.0000 -0.0000
vt 0.325000 0.500000
vt 0.425000 0.750000
vt 0.325000 0.750000
vt 0.416667 0.500000
vt 0.500000 0.750000
vt 0.416667 0.750000
vt 0.250000 0.675000
vt 0.333333 0.575000
vt 0.333333 0.675000
vt 0.416667 0.500000
vt 0.416667 0.750000
vt 0.250000 0.500000
vt 0.333333 0.750000
vt 0.250000 0.750000
vt 0.416667 0.748122
vt 0.416667 0.500364
vt 0.333333 0.511702
vt 0.333333 0.750364
vt 0.416667 0.511702
vt 0.333333 0.500000
vt 0.333333 0.748122
vt 0.416667 0.738298
vt 0.416667 0.498121
vt 0.416667 0.675000
vt 0.500000 0.575000
vt 0.500000 0.675000
vt 0.333333 0.738298
vt 0.333333 0.661316
vt 0.416667 0.588684
vt 0.416667 0.575000
vt 0.333333 0.500364
vt 0.416667 0.748122
vt 0.333333 0.748122
vt 0.333333 0.498121
vt 0.416667 0.750364
vt 0.333333 0.750364
vt 0.333333 0.661316
vt 0.416667 0.661316
vt 0.416667 0.675000
vt 0.416667 0.588684
vt 0.416667 0.575000
vt 0.333333 0.498121
vt 0.416667 0.738298
vt 0.416667 0.750364
vt 0.333333 0.750364
vt 0.416667 0.661316
vt 0.416667 0.498121
vt 0.425000 0.500000
vt 0.500000 0.500000
vt 0.250000 0.575000
vt 0.416667 0.750364
vt 0.333333 0.500364
vt 0.333333 0.498121
vt 0.333333 0.588684
vt 0.416667 0.661316
vt 0.416667 0.500364
vt 0.416667 0.661316
vt 0.416667 0.750364
vt 0.416667 0.498121
vt 0.416667 0.500364
s 0
usemtl Material
f 2/1/1 23/2/1 22/3/1
f 42/4/2 25/5/2 56/6/2
f 8/1/3 27/2/3 25/3/3
f 60/4/4 22/5/4 72/6/4
f 7/7/5 44/8/5 45/9/5
f 4/7/6 60/8/6 61/9/6
f 14/7/6 48/8/6 41/9/6
f 13/7/6 96/8/6 91/9/6
f 12/7/6 112/8/6 107/9/6
f 11/7/5 64/8/5 57/9/5
f 10/7/5 110/8/5 105/9/5
f 9/7/5 94/8/5 89/9/5
f 48/4/4 29/5/4 52/6/4
f 96/4/4 31/5/4 104/6/4
f 112/4/4 33/5/4 120/6/4
f 62/4/2 35/5/2 68/6/2
f 108/4/2 37/5/2 116/6/2
f 92/4/2 39/5/2 100/6/2
f 98/4/2 9/5/2 89/6/2
f 100/4/2 40/5/2 98/6/2
f 114/10/2 10/5/2 105/11/2
f 116/4/2 38/5/2 114/6/2
f 66/4/2 11/5/2 57/6/2
f 68/4/2 36/5/2 66/6/2
f 118/4/4 15/5/4 109/6/4
f 120/4/4 34/5/4 118/6/4
f 102/10/4 16/5/4 93/11/4
f 104/4/4 32/5/4 102/6/4
f 50/4/4 17/5/4 43/6/4
f 52/4/4 30/5/4 50/6/4
f 70/4/4 1/5/4 63/6/4
f 72/4/4 21/5/4 70/6/4
f 26/1/3 5/2/3 7/3/3
f 25/1/3 28/2/3 26/3/3
f 54/4/2 7/5/2 45/6/2
f 56/4/2 26/5/2 54/6/2
f 21/1/1 3/2/1 1/3/1
f 22/1/1 24/2/1 21/3/1
f 39/12/2 53/13/2 40/14/2
f 56/4/1 86/15/1 88/16/1
f 40/12/2 46/13/2 9/14/2
f 51/13/1 79/17/1 83/18/1
f 27/12/4 49/13/4 28/14/4
f 56/6/1 74/19/1 42/4/1
f 28/12/4 44/13/4 5/14/4
f 55/20/3 85/21/3 53/13/3
f 6/12/4 51/13/4 27/14/4
f 50/4/3 75/22/3 82/23/3
f 42/24/6 6/25/6 8/26/6
f 55/13/3 73/17/3 87/18/3
f 46/24/5 17/25/5 9/26/5
f 49/20/1 76/27/1 44/13/1
f 14/12/2 55/13/2 39/14/2
f 44/8/1 77/28/1 45/9/1
f 33/12/4 69/13/4 34/14/4
f 67/20/3 161/21/3 65/13/3
f 34/12/4 64/13/4 15/14/4
f 64/8/1 153/28/1 57/9/1
f 23/12/2 65/13/2 24/14/2
f 70/4/3 159/22/3 166/23/3
f 24/12/2 58/13/2 3/14/2
f 58/24/3 159/29/3 63/30/3
f 4/12/2 67/13/2 23/14/2
f 69/20/1 160/27/1 64/13/1
f 58/24/5 1/25/5 3/26/5
f 68/6/1 158/19/1 62/4/1
f 62/24/6 20/25/6 12/26/6
f 72/4/3 166/15/3 168/16/3
f 20/12/4 71/13/4 33/14/4
f 67/13/3 157/17/3 163/18/3
f 87/31/2 86/32/2 85/33/2
f 85/34/2 77/22/2 78/27/2
f 83/31/4 82/32/4 81/33/4
f 81/34/4 75/22/4 76/27/4
f 79/17/4 84/35/4 83/36/4
f 73/37/6 79/29/6 74/38/6
f 77/37/5 75/29/5 78/38/5
f 73/17/2 88/35/2 87/36/2
f 52/6/3 80/19/3 48/4/3
f 53/20/3 78/27/3 46/13/3
f 42/24/1 79/29/1 47/30/1
f 54/4/1 77/22/1 86/23/1
f 48/8/3 73/28/3 41/9/3
f 51/20/1 81/21/1 49/13/1
f 46/24/3 75/29/3 43/30/3
f 52/4/3 82/15/3 84/16/3
f 29/12/4 101/13/4 30/14/4
f 98/4/1 121/22/1 130/23/1
f 30/12/4 94/13/4 17/14/4
f 92/24/1 127/29/1 95/30/1
f 37/12/2 97/13/2 38/14/2
f 97/20/3 122/27/3 90/13/3
f 38/12/2 90/13/2 10/14/2
f 94/8/1 121/28/1 89/9/1
f 13/12/2 99/13/2 37/14/2
f 100/4/1 130/15/1 132/16/1
f 18/12/4 103/13/4 29/14/4
f 90/39/3 125/40/3 93/41/3
f 90/39/5 16/25/5 10/26/5
f 99/20/3 129/21/3 97/13/3
f 92/24/6 18/25/6 14/26/6
f 104/6/3 128/19/3 96/4/3
f 31/12/4 117/13/4 32/14/4
f 106/24/3 141/29/3 109/30/3
f 32/12/4 110/13/4 16/14/4
f 115/20/3 145/21/3 113/13/3
f 35/12/2 113/13/2 36/14/2
f 120/6/3 144/19/3 112/4/3
f 36/12/2 106/13/2 11/14/2
f 118/4/3 141/22/3 150/23/3
f 12/12/2 115/13/2 35/14/2
f 119/13/1 143/17/1 151/18/1
f 19/12/4 119/13/4 31/14/4
f 117/20/1 142/27/1 110/13/1
f 106/24/5 15/25/5 11/26/5
f 116/6/1 140/19/1 108/4/1
f 108/39/6 19/25/6 13/26/6
f 120/4/3 150/15/3 152/16/3
f 135/31/4 134/32/4 133/33/4
f 133/42/4 125/43/4 126/27/4
f 131/31/2 130/32/2 129/33/2
f 129/42/2 121/22/2 122/27/2
f 123/17/2 132/44/2 131/45/2
f 127/17/4 136/44/4 135/45/4
f 121/37/5 125/40/5 122/46/5
f 123/37/6 127/29/6 124/38/6
f 103/20/1 133/21/1 101/13/1
f 96/8/3 123/28/3 91/9/3
f 99/13/3 123/17/3 131/18/3
f 104/4/3 134/15/3 136/16/3
f 100/6/1 124/19/1 92/4/1
f 101/20/1 126/27/1 94/13/1
f 103/13/1 127/17/1 135/18/1
f 102/10/3 125/43/3 134/47/3
f 151/31/4 150/32/4 149/33/4
f 149/42/4 141/22/4 142/27/4
f 147/31/2 146/32/2 145/33/2
f 145/42/2 137/43/2 138/27/2
f 139/17/2 148/44/2 147/45/2
f 143/17/4 152/44/4 151/45/4
f 137/37/5 141/29/5 138/38/5
f 139/37/6 143/40/6 140/46/6
f 116/4/1 146/15/1 148/16/1
f 110/8/1 137/28/1 105/9/1
f 113/20/3 138/27/3 106/13/3
f 108/39/1 143/40/1 111/41/1
f 114/10/1 137/43/1 146/47/1
f 119/20/1 149/21/1 117/13/1
f 112/8/3 139/28/3 107/9/3
f 115/13/3 139/17/3 147/18/3
f 167/31/4 166/32/4 165/33/4
f 165/34/4 159/22/4 160/27/4
f 163/31/2 162/32/2 161/33/2
f 161/34/2 153/22/2 154/27/2
f 157/17/2 164/35/2 163/36/2
f 153/37/5 159/29/5 154/38/5
f 157/37/6 155/29/6 158/38/6
f 155/17/4 168/35/4 167/36/4
f 62/24/1 155/29/1 59/30/1
f 68/4/1 162/15/1 164/16/1
f 60/8/3 157/28/3 61/9/3
f 65/20/3 154/27/3 58/13/3
f 71/13/1 155/17/1 167/18/1
f 66/4/1 153/22/1 162/23/1
f 71/20/1 165/21/1 69/13/1
f 72/6/3 156/19/3 60/4/3
f 2/1/1 4/48/1 23/2/1
f 42/4/2 8/49/2 25/5/2
f 8/1/3 6/48/3 27/2/3
f 60/4/4 2/49/4 22/5/4
f 7/7/5 5/50/5 44/8/5
f 4/7/6 2/50/6 60/8/6
f 14/7/6 18/50/6 48/8/6
f 13/7/6 19/50/6 96/8/6
f 12/7/6 20/50/6 112/8/6
f 11/7/5 15/50/5 64/8/5
f 10/7/5 16/50/5 110/8/5
f 9/7/5 17/50/5 94/8/5
f 48/4/4 18/49/4 29/5/4
f 96/4/4 19/49/4 31/5/4
f 112/4/4 20/49/4 33/5/4
f 62/4/2 12/49/2 35/5/2
f 108/4/2 13/49/2 37/5/2
f 92/4/2 14/49/2 39/5/2
f 98/4/2 40/49/2 9/5/2
f 100/4/2 39/49/2 40/5/2
f 114/10/2 38/49/2 10/5/2
f 116/4/2 37/49/2 38/5/2
f 66/4/2 36/49/2 11/5/2
f 68/4/2 35/49/2 36/5/2
f 118/4/4 34/49/4 15/5/4
f 120/4/4 33/49/4 34/5/4
f 102/10/4 32/49/4 16/5/4
f 104/4/4 31/49/4 32/5/4
f 50/4/4 30/49/4 17/5/4
f 52/4/4 29/49/4 30/5/4
f 70/4/4 21/49/4 1/5/4
f 72/4/4 22/49/4 21/5/4
f 26/1/3 28/48/3 5/2/3
f 25/1/3 27/48/3 28/2/3
f 54/4/2 26/49/2 7/5/2
f 56/4/2 25/49/2 26/5/2
f 21/1/1 24/48/1 3/2/1
f 22/1/1 23/48/1 24/2/1
f 39/12/2 55/20/2 53/13/2
f 56/4/1 54/6/1 86/15/1
f 40/12/2 53/20/2 46/13/2
f 51/13/1 47/20/1 79/17/1
f 27/12/4 51/20/4 49/13/4
f 56/6/1 88/51/1 74/19/1
f 28/12/4 49/20/4 44/13/4
f 55/20/3 87/52/3 85/21/3
f 6/12/4 47/20/4 51/13/4
f 50/4/3 43/6/3 75/22/3
f 42/24/6 47/30/6 6/25/6
f 55/13/3 41/20/3 73/17/3
f 46/24/5 43/30/5 17/25/5
f 49/20/1 81/53/1 76/27/1
f 14/12/2 41/20/2 55/13/2
f 44/8/1 76/54/1 77/28/1
f 33/12/4 71/20/4 69/13/4
f 67/20/3 163/52/3 161/21/3
f 34/12/4 69/20/4 64/13/4
f 64/8/1 160/54/1 153/28/1
f 23/12/2 67/20/2 65/13/2
f 70/4/3 63/6/3 159/22/3
f 24/12/2 65/20/2 58/13/2
f 58/24/3 154/55/3 159/29/3
f 4/12/2 61/20/2 67/13/2
f 69/20/1 165/53/1 160/27/1
f 58/24/5 63/30/5 1/25/5
f 68/6/1 164/51/1 158/19/1
f 62/24/6 59/30/6 20/25/6
f 72/4/3 70/6/3 166/15/3
f 20/12/4 59/20/4 71/13/4
f 67/13/3 61/20/3 157/17/3
f 87/31/2 88/56/2 86/32/2
f 85/34/2 86/23/2 77/22/2
f 83/31/4 84/56/4 82/32/4
f 81/34/4 82/23/4 75/22/4
f 79/17/4 80/19/4 84/35/4
f 73/37/6 80/54/6 79/29/6
f 77/37/5 76/54/5 75/29/5
f 73/17/2 74/19/2 88/35/2
f 52/6/3 84/51/3 80/19/3
f 53/20/3 85/53/3 78/27/3
f 42/24/1 74/55/1 79/29/1
f 54/4/1 45/6/1 77/22/1
f 48/8/3 80/54/3 73/28/3
f 51/20/1 83/52/1 81/21/1
f 46/24/3 78/55/3 75/29/3
f 52/4/3 50/6/3 82/15/3
f 29/12/4 103/20/4 101/13/4
f 98/4/1 89/6/1 121/22/1
f 30/12/4 101/20/4 94/13/4
f 92/24/1 124/55/1 127/29/1
f 37/12/2 99/20/2 97/13/2
f 97/20/3 129/53/3 122/27/3
f 38/12/2 97/20/2 90/13/2
f 94/8/1 126/54/1 121/28/1
f 13/12/2 91/20/2 99/13/2
f 100/4/1 98/6/1 130/15/1
f 18/12/4 95/20/4 103/13/4
f 90/39/3 122/57/3 125/40/3
f 90/39/5 93/41/5 16/25/5
f 99/20/3 131/52/3 129/21/3
f 92/24/6 95/30/6 18/25/6
f 104/6/3 136/51/3 128/19/3
f 31/12/4 119/20/4 117/13/4
f 106/24/3 138/55/3 141/29/3
f 32/12/4 117/20/4 110/13/4
f 115/20/3 147/52/3 145/21/3
f 35/12/2 115/20/2 113/13/2
f 120/6/3 152/58/3 144/19/3
f 36/12/2 113/20/2 106/13/2
f 118/4/3 109/6/3 141/22/3
f 12/12/2 107/20/2 115/13/2
f 119/13/1 111/20/1 143/17/1
f 19/12/4 111/20/4 119/13/4
f 117/20/1 149/53/1 142/27/1
f 106/24/5 109/30/5 15/25/5
f 116/6/1 148/51/1 140/19/1
f 108/39/6 111/41/6 19/25/6
f 120/4/3 118/6/3 150/15/3
f 135/31/4 136/56/4 134/32/4
f 133/42/4 134/59/4 125/43/4
f 131/31/2 132/60/2 130/32/2
f 129/42/2 130/47/2 121/22/2
f 123/17/2 124/19/2 132/44/2
f 127/17/4 128/19/4 136/44/4
f 121/37/5 126/54/5 125/40/5
f 123/37/6 128/54/6 127/29/6
f 103/20/1 135/52/1 133/21/1
f 96/8/3 128/54/3 123/28/3
f 99/13/3 91/20/3 123/17/3
f 104/4/3 102/6/3 134/15/3
f 100/6/1 132/58/1 124/19/1
f 101/20/1 133/53/1 126/27/1
f 103/13/1 95/20/1 127/17/1
f 102/10/3 93/11/3 125/43/3
f 151/31/4 152/60/4 150/32/4
f 149/42/4 150/47/4 141/22/4
f 147/31/2 148/56/2 146/32/2
f 145/42/2 146/59/2 137/43/2
f 139/17/2 140/19/2 148/44/2
f 143/17/4 144/19/4 152/44/4
f 137/37/5 142/54/5 141/29/5
f 139/37/6 144/54/6 143/40/6
f 116/4/1 114/6/1 146/15/1
f 110/8/1 142/54/1 137/28/1
f 113/20/3 145/53/3 138/27/3
f 108/39/1 140/57/1 143/40/1
f 114/10/1 105/11/1 137/43/1
f 119/20/1 151/52/1 149/21/1
f 112/8/3 144/54/3 139/28/3
f 115/13/3 107/20/3 139/17/3
f 167/31/4 168/56/4 166/32/4
f 165/34/4 166/23/4 159/22/4
f 163/31/2 164/56/2 162/32/2
f 161/34/2 162/23/2 153/22/2
f 157/17/2 158/19/2 164/35/2
f 153/37/5 160/54/5 159/29/5
f 157/37/6 156/54/6 155/29/6
f 155/17/4 156/19/4 168/35/4
f 62/24/1 158/55/1 155/29/1
f 68/4/1 66/6/1 162/15/1
f 60/8/3 156/54/3 157/28/3
f 65/20/3 161/53/3 154/27/3
f 71/13/1 59/20/1 155/17/1
f 66/4/1 57/6/1 153/22/1
f 71/20/1 167/52/1 165/21/1
f 72/6/3 168/51/3 156/19/3
