{
	"asset":{
		"generator":"Khronos glTF Blender I/O v4.0.44",
		"version":"2.0"
	},
	"scene":0,
	"scenes":[
		{
			"name":"Scene",
			"nodes":[
				15
			]
		}
	],
	"nodes":[
		{
			"name":"head",
			"rotation":[
				0.21603117883205414,
				-1.0529479140463518e-16,
				-1.0600113747330646e-16,
				0.9763864874839783
			],
			"translation":[
				-1.454028420503369e-25,
				0.6696161031723022,
				9.313225746154785e-10
			]
		},
		{
			"name":"palm.L",
			"rotation":[
				0.07119233161211014,
				-0.06526996195316315,
				-0.13011349737644196,
				0.9867836833000183
			],
			"scale":[
				0.9999998807907104,
				0.9999998211860657,
				0.9999999403953552
			],
			"translation":[
				-6.455229595303535e-08,
				0.3485703468322754,
				0
			]
		},
		{
			"children":[
				1
			],
			"name":"forearm.L",
			"rotation":[
				0.19757336378097534,
				-0.008931348100304604,
				-0.07889755070209503,
				0.9770671129226685
			],
			"scale":[
				1.0000001192092896,
				1.0000001192092896,
				1
			],
			"translation":[
				4.6566128730773926e-08,
				0.27895641326904297,
				1.3969838619232178e-09
			]
		},
		{
			"children":[
				2
			],
			"name":"upperarm.L",
			"rotation":[
				-0.008423828519880772,
				0.019132297486066818,
				-0.9837074875831604,
				0.17855703830718994
			],
			"scale":[
				0.9999990463256836,
				1,
				0.9999998807907104
			],
			"translation":[
				0.20805081725120544,
				0.571915864944458,
				-0.017509443685412407
			]
		},
		{
			"name":"foot.L",
			"rotation":[
				-0.7054615020751953,
				-0.12208592146635056,
				-0.12069735676050186,
				0.6876417994499207
			],
			"translation":[
				-1.673470251262188e-08,
				0.5582261681556702,
				1.3969838619232178e-09
			]
		},
		{
			"children":[
				4
			],
			"name":"shin.L",
			"rotation":[
				0.10424866527318954,
				0.0011474037310108542,
				-0.0010062806541100144,
				0.9945501089096069
			],
			"scale":[
				0.9999999403953552,
				1,
				0.9999998807907104
			],
			"translation":[
				2.2948370315134525e-08,
				0.4594874083995819,
				1.1641532182693481e-10
			]
		},
		{
			"children":[
				5
			],
			"name":"thigh.L",
			"rotation":[
				0.9990516304969788,
				0.035606443881988525,
				0.002393996110185981,
				0.02494460716843605
			],
			"scale":[
				1.000009536743164,
				0.9999999403953552,
				1.0000046491622925
			],
			"translation":[
				0.12646231055259705,
				0.025014998391270638,
				0.00030472883372567594
			]
		},
		{
			"name":"palm.R",
			"rotation":[
				0.07119233161211014,
				0.06526996195316315,
				0.13011349737644196,
				0.9867836833000183
			],
			"scale":[
				0.9999998807907104,
				0.9999998211860657,
				0.9999999403953552
			],
			"translation":[
				6.455229595303535e-08,
				0.3485703468322754,
				0
			]
		},
		{
			"children":[
				7
			],
			"name":"forearm.R",
			"rotation":[
				0.19757336378097534,
				0.008931348100304604,
				0.07889755070209503,
				0.9770671129226685
			],
			"scale":[
				1.0000001192092896,
				1.0000001192092896,
				1
			],
			"translation":[
				-4.6566128730773926e-08,
				0.27895641326904297,
				1.3969838619232178e-09
			]
		},
		{
			"children":[
				8
			],
			"name":"upperarm.R",
			"rotation":[
				-0.008423828519880772,
				-0.019132297486066818,
				0.9837074875831604,
				0.17855703830718994
			],
			"scale":[
				0.9999990463256836,
				1,
				0.9999998807907104
			],
			"translation":[
				-0.20805081725120544,
				0.571915864944458,
				-0.017509443685412407
			]
		},
		{
			"name":"foot.R",
			"rotation":[
				-0.7054615020751953,
				0.12208592146635056,
				0.12069735676050186,
				0.6876417994499207
			],
			"translation":[
				1.673470251262188e-08,
				0.5582261681556702,
				1.3969838619232178e-09
			]
		},
		{
			"children":[
				10
			],
			"name":"shin.R",
			"rotation":[
				0.10424866527318954,
				-0.0011474037310108542,
				0.0010062806541100144,
				0.9945501089096069
			],
			"scale":[
				0.9999999403953552,
				1,
				0.9999998807907104
			],
			"translation":[
				-2.2948370315134525e-08,
				0.4594874083995819,
				1.1641532182693481e-10
			]
		},
		{
			"children":[
				11
			],
			"name":"thigh.R",
			"rotation":[
				0.9990516304969788,
				-0.035606443881988525,
				-0.002393996110185981,
				0.02494460716843605
			],
			"scale":[
				1.000009536743164,
				0.9999999403953552,
				1.0000046491622925
			],
			"translation":[
				-0.12646231055259705,
				0.025014998391270638,
				0.00030472883372567594
			]
		},
		{
			"children":[
				0,
				3,
				6,
				9,
				12
			],
			"name":"torso",
			"rotation":[
				-0.006092318333685398,
				1.3445711255618302e-18,
				1.3445710221642536e-18,
				0.9999814629554749
			],
			"scale":[
				1,
				0.9999999403953552,
				0.9999999403953552
			],
			"translation":[
				0,
				1.0116981267929077,
				0
			]
		},
		{
			"mesh":0,
			"name":"Cube",
			"skin":0
		},
		{
			"children":[
				14,
				13
			],
			"name":"Armature"
		}
	],
	"animations":[
		{
			"channels":[
				{
					"sampler":0,
					"target":{
						"node":13,
						"path":"translation"
					}
				},
				{
					"sampler":1,
					"target":{
						"node":13,
						"path":"rotation"
					}
				},
				{
					"sampler":2,
					"target":{
						"node":13,
						"path":"scale"
					}
				},
				{
					"sampler":3,
					"target":{
						"node":0,
						"path":"translation"
					}
				},
				{
					"sampler":4,
					"target":{
						"node":0,
						"path":"rotation"
					}
				},
				{
					"sampler":5,
					"target":{
						"node":0,
						"path":"scale"
					}
				},
				{
					"sampler":6,
					"target":{
						"node":3,
						"path":"translation"
					}
				},
				{
					"sampler":7,
					"target":{
						"node":3,
						"path":"rotation"
					}
				},
				{
					"sampler":8,
					"target":{
						"node":3,
						"path":"scale"
					}
				},
				{
					"sampler":9,
					"target":{
						"node":2,
						"path":"translation"
					}
				},
				{
					"sampler":10,
					"target":{
						"node":2,
						"path":"rotation"
					}
				},
				{
					"sampler":11,
					"target":{
						"node":2,
						"path":"scale"
					}
				},
				{
					"sampler":12,
					"target":{
						"node":1,
						"path":"translation"
					}
				},
				{
					"sampler":13,
					"target":{
						"node":1,
						"path":"rotation"
					}
				},
				{
					"sampler":14,
					"target":{
						"node":1,
						"path":"scale"
					}
				},
				{
					"sampler":15,
					"target":{
						"node":6,
						"path":"translation"
					}
				},
				{
					"sampler":16,
					"target":{
						"node":6,
						"path":"rotation"
					}
				},
				{
					"sampler":17,
					"target":{
						"node":6,
						"path":"scale"
					}
				},
				{
					"sampler":18,
					"target":{
						"node":5,
						"path":"translation"
					}
				},
				{
					"sampler":19,
					"target":{
						"node":5,
						"path":"rotation"
					}
				},
				{
					"sampler":20,
					"target":{
						"node":5,
						"path":"scale"
					}
				},
				{
					"sampler":21,
					"target":{
						"node":4,
						"path":"translation"
					}
				},
				{
					"sampler":22,
					"target":{
						"node":4,
						"path":"rotation"
					}
				},
				{
					"sampler":23,
					"target":{
						"node":4,
						"path":"scale"
					}
				},
				{
					"sampler":24,
					"target":{
						"node":9,
						"path":"translation"
					}
				},
				{
					"sampler":25,
					"target":{
						"node":9,
						"path":"rotation"
					}
				},
				{
					"sampler":26,
					"target":{
						"node":9,
						"path":"scale"
					}
				},
				{
					"sampler":27,
					"target":{
						"node":8,
						"path":"translation"
					}
				},
				{
					"sampler":28,
					"target":{
						"node":8,
						"path":"rotation"
					}
				},
				{
					"sampler":29,
					"target":{
						"node":8,
						"path":"scale"
					}
				},
				{
					"sampler":30,
					"target":{
						"node":7,
						"path":"translation"
					}
				},
				{
					"sampler":31,
					"target":{
						"node":7,
						"path":"rotation"
					}
				},
				{
					"sampler":32,
					"target":{
						"node":7,
						"path":"scale"
					}
				},
				{
					"sampler":33,
					"target":{
						"node":12,
						"path":"translation"
					}
				},
				{
					"sampler":34,
					"target":{
						"node":12,
						"path":"rotation"
					}
				},
				{
					"sampler":35,
					"target":{
						"node":12,
						"path":"scale"
					}
				},
				{
					"sampler":36,
					"target":{
						"node":11,
						"path":"translation"
					}
				},
				{
					"sampler":37,
					"target":{
						"node":11,
						"path":"rotation"
					}
				},
				{
					"sampler":38,
					"target":{
						"node":11,
						"path":"scale"
					}
				},
				{
					"sampler":39,
					"target":{
						"node":10,
						"path":"translation"
					}
				},
				{
					"sampler":40,
					"target":{
						"node":10,
						"path":"rotation"
					}
				},
				{
					"sampler":41,
					"target":{
						"node":10,
						"path":"scale"
					}
				}
			],
			"name":"idle",
			"samplers":[
				{
					"input":7,
					"interpolation":"STEP",
					"output":8
				},
				{
					"input":7,
					"interpolation":"STEP",
					"output":9
				},
				{
					"input":7,
					"interpolation":"STEP",
					"output":10
				},
				{
					"input":7,
					"interpolation":"STEP",
					"output":11
				},
				{
					"input":7,
					"interpolation":"STEP",
					"output":12
				},
				{
					"input":7,
					"interpolation":"STEP",
					"output":13
				},
				{
					"input":7,
					"interpolation":"STEP",
					"output":14
				},
				{
					"input":7,
					"interpolation":"STEP",
					"output":15
				},
				{
					"input":7,
					"interpolation":"STEP",
					"output":16
				},
				{
					"input":7,
					"interpolation":"STEP",
					"output":17
				},
				{
					"input":7,
					"interpolation":"STEP",
					"output":18
				},
				{
					"input":7,
					"interpolation":"STEP",
					"output":19
				},
				{
					"input":7,
					"interpolation":"STEP",
					"output":20
				},
				{
					"input":7,
					"interpolation":"STEP",
					"output":21
				},
				{
					"input":7,
					"interpolation":"STEP",
					"output":22
				},
				{
					"input":7,
					"interpolation":"STEP",
					"output":23
				},
				{
					"input":7,
					"interpolation":"STEP",
					"output":24
				},
				{
					"input":7,
					"interpolation":"STEP",
					"output":25
				},
				{
					"input":7,
					"interpolation":"STEP",
					"output":26
				},
				{
					"input":7,
					"interpolation":"STEP",
					"output":27
				},
				{
					"input":7,
					"interpolation":"STEP",
					"output":28
				},
				{
					"input":7,
					"interpolation":"STEP",
					"output":29
				},
				{
					"input":7,
					"interpolation":"STEP",
					"output":30
				},
				{
					"input":7,
					"interpolation":"STEP",
					"output":31
				},
				{
					"input":7,
					"interpolation":"STEP",
					"output":32
				},
				{
					"input":7,
					"interpolation":"STEP",
					"output":33
				},
				{
					"input":7,
					"interpolation":"STEP",
					"output":34
				},
				{
					"input":7,
					"interpolation":"STEP",
					"output":35
				},
				{
					"input":7,
					"interpolation":"STEP",
					"output":36
				},
				{
					"input":7,
					"interpolation":"STEP",
					"output":37
				},
				{
					"input":7,
					"interpolation":"STEP",
					"output":38
				},
				{
					"input":7,
					"interpolation":"STEP",
					"output":39
				},
				{
					"input":7,
					"interpolation":"STEP",
					"output":40
				},
				{
					"input":7,
					"interpolation":"STEP",
					"output":41
				},
				{
					"input":7,
					"interpolation":"STEP",
					"output":42
				},
				{
					"input":7,
					"interpolation":"STEP",
					"output":43
				},
				{
					"input":7,
					"interpolation":"STEP",
					"output":44
				},
				{
					"input":7,
					"interpolation":"STEP",
					"output":45
				},
				{
					"input":7,
					"interpolation":"STEP",
					"output":46
				},
				{
					"input":7,
					"interpolation":"STEP",
					"output":47
				},
				{
					"input":7,
					"interpolation":"STEP",
					"output":48
				},
				{
					"input":7,
					"interpolation":"STEP",
					"output":49
				}
			]
		}
	],
	"materials":[
		{
			"doubleSided":true,
			"name":"Material",
			"pbrMetallicRoughness":{
				"baseColorTexture":{
					"index":0
				},
				"metallicFactor":0,
				"roughnessFactor":0.5
			}
		}
	],
	"meshes":[
		{
			"name":"Cube.008",
			"primitives":[
				{
					"attributes":{
						"POSITION":0,
						"NORMAL":1,
						"TEXCOORD_0":2,
						"JOINTS_0":3,
						"WEIGHTS_0":4
					},
					"indices":5,
					"material":0
				}
			]
		}
	],
	"textures":[
		{
			"sampler":0,
			"source":0
		}
	],
	"images":[
		{
			"mimeType":"image/png",
			"name":"level_textures",
			"uri":"level_textures.png"
		}
	],
	"skins":[
		{
			"inverseBindMatrices":6,
			"joints":[
				13,
				0,
				3,
				2,
				1,
				6,
				5,
				4,
				9,
				8,
				7,
				12,
				11,
				10
			],
			"name":"Armature"
		}
	],
	"accessors":[
		{
			"bufferView":0,
			"componentType":5126,
			"count":900,
			"max":[
				0.3990952670574188,
				1.9722254276275635,
				0.18986976146697998
			],
			"min":[
				-0.3990952670574188,
				-0.00799609161913395,
				-0.13742242753505707
			],
			"type":"VEC3"
		},
		{
			"bufferView":1,
			"componentType":5126,
			"count":900,
			"type":"VEC3"
		},
		{
			"bufferView":2,
			"componentType":5126,
			"count":900,
			"type":"VEC2"
		},
		{
			"bufferView":3,
			"componentType":5121,
			"count":900,
			"type":"VEC4"
		},
		{
			"bufferView":4,
			"componentType":5126,
			"count":900,
			"type":"VEC4"
		},
		{
			"bufferView":5,
			"componentType":5123,
			"count":1992,
			"type":"SCALAR"
		},
		{
			"bufferView":6,
			"componentType":5126,
			"count":14,
			"type":"MAT4"
		},
		{
			"bufferView":7,
			"componentType":5126,
			"count":2,
			"max":[
				2.5
			],
			"min":[
				0.041666666666666664
			],
			"type":"SCALAR"
		},
		{
			"bufferView":8,
			"componentType":5126,
			"count":2,
			"type":"VEC3"
		},
		{
			"bufferView":9,
			"componentType":5126,
			"count":2,
			"type":"VEC4"
		},
		{
			"bufferView":10,
			"componentType":5126,
			"count":2,
			"type":"VEC3"
		},
		{
			"bufferView":11,
			"componentType":5126,
			"count":2,
			"type":"VEC3"
		},
		{
			"bufferView":12,
			"componentType":5126,
			"count":2,
			"type":"VEC4"
		},
		{
			"bufferView":13,
			"componentType":5126,
			"count":2,
			"type":"VEC3"
		},
		{
			"bufferView":14,
			"componentType":5126,
			"count":2,
			"type":"VEC3"
		},
		{
			"bufferView":15,
			"componentType":5126,
			"count":2,
			"type":"VEC4"
		},
		{
			"bufferView":16,
			"componentType":5126,
			"count":2,
			"type":"VEC3"
		},
		{
			"bufferView":17,
			"componentType":5126,
			"count":2,
			"type":"VEC3"
		},
		{
			"bufferView":18,
			"componentType":5126,
			"count":2,
			"type":"VEC4"
		},
		{
			"bufferView":19,
			"componentType":5126,
			"count":2,
			"type":"VEC3"
		},
		{
			"bufferView":20,
			"componentType":5126,
			"count":2,
			"type":"VEC3"
		},
		{
			"bufferView":21,
			"componentType":5126,
			"count":2,
			"type":"VEC4"
		},
		{
			"bufferView":22,
			"componentType":5126,
			"count":2,
			"type":"VEC3"
		},
		{
			"bufferView":23,
			"componentType":5126,
			"count":2,
			"type":"VEC3"
		},
		{
			"bufferView":24,
			"componentType":5126,
			"count":2,
			"type":"VEC4"
		},
		{
			"bufferView":25,
			"componentType":5126,
			"count":2,
			"type":"VEC3"
		},
		{
			"bufferView":26,
			"componentType":5126,
			"count":2,
			"type":"VEC3"
		},
		{
			"bufferView":27,
			"componentType":5126,
			"count":2,
			"type":"VEC4"
		},
		{
			"bufferView":28,
			"componentType":5126,
			"count":2,
			"type":"VEC3"
		},
		{
			"bufferView":29,
			"componentType":5126,
			"count":2,
			"type":"VEC3"
		},
		{
			"bufferView":30,
			"componentType":5126,
			"count":2,
			"type":"VEC4"
		},
		{
			"bufferView":31,
			"componentType":5126,
			"count":2,
			"type":"VEC3"
		},
		{
			"bufferView":32,
			"componentType":5126,
			"count":2,
			"type":"VEC3"
		},
		{
			"bufferView":33,
			"componentType":5126,
			"count":2,
			"type":"VEC4"
		},
		{
			"bufferView":34,
			"componentType":5126,
			"count":2,
			"type":"VEC3"
		},
		{
			"bufferView":35,
			"componentType":5126,
			"count":2,
			"type":"VEC3"
		},
		{
			"bufferView":36,
			"componentType":5126,
			"count":2,
			"type":"VEC4"
		},
		{
			"bufferView":37,
			"componentType":5126,
			"count":2,
			"type":"VEC3"
		},
		{
			"bufferView":38,
			"componentType":5126,
			"count":2,
			"type":"VEC3"
		},
		{
			"bufferView":39,
			"componentType":5126,
			"count":2,
			"type":"VEC4"
		},
		{
			"bufferView":40,
			"componentType":5126,
			"count":2,
			"type":"VEC3"
		},
		{
			"bufferView":41,
			"componentType":5126,
			"count":2,
			"type":"VEC3"
		},
		{
			"bufferView":42,
			"componentType":5126,
			"count":2,
			"type":"VEC4"
		},
		{
			"bufferView":43,
			"componentType":5126,
			"count":2,
			"type":"VEC3"
		},
		{
			"bufferView":44,
			"componentType":5126,
			"count":2,
			"type":"VEC3"
		},
		{
			"bufferView":45,
			"componentType":5126,
			"count":2,
			"type":"VEC4"
		},
		{
			"bufferView":46,
			"componentType":5126,
			"count":2,
			"type":"VEC3"
		},
		{
			"bufferView":47,
			"componentType":5126,
			"count":2,
			"type":"VEC3"
		},
		{
			"bufferView":48,
			"componentType":5126,
			"count":2,
			"type":"VEC4"
		},
		{
			"bufferView":49,
			"componentType":5126,
			"count":2,
			"type":"VEC3"
		}
	],
	"bufferViews":[
		{
			"buffer":0,
			"byteLength":10800,
			"byteOffset":0,
			"target":34962
		},
		{
			"buffer":0,
			"byteLength":10800,
			"byteOffset":10800,
			"target":34962
		},
		{
			"buffer":0,
			"byteLength":7200,
			"byteOffset":21600,
			"target":34962
		},
		{
			"buffer":0,
			"byteLength":3600,
			"byteOffset":28800,
			"target":34962
		},
		{
			"buffer":0,
			"byteLength":14400,
			"byteOffset":32400,
			"target":34962
		},
		{
			"buffer":0,
			"byteLength":3984,
			"byteOffset":46800,
			"target":34963
		},
		{
			"buffer":0,
			"byteLength":896,
			"byteOffset":50784
		},
		{
			"buffer":0,
			"byteLength":8,
			"byteOffset":51680
		},
		{
			"buffer":0,
			"byteLength":24,
			"byteOffset":51688
		},
		{
			"buffer":0,
			"byteLength":32,
			"byteOffset":51712
		},
		{
			"buffer":0,
			"byteLength":24,
			"byteOffset":51744
		},
		{
			"buffer":0,
			"byteLength":24,
			"byteOffset":51768
		},
		{
			"buffer":0,
			"byteLength":32,
			"byteOffset":51792
		},
		{
			"buffer":0,
			"byteLength":24,
			"byteOffset":51824
		},
		{
			"buffer":0,
			"byteLength":24,
			"byteOffset":51848
		},
		{
			"buffer":0,
			"byteLength":32,
			"byteOffset":51872
		},
		{
			"buffer":0,
			"byteLength":24,
			"byteOffset":51904
		},
		{
			"buffer":0,
			"byteLength":24,
			"byteOffset":51928
		},
		{
			"buffer":0,
			"byteLength":32,
			"byteOffset":51952
		},
		{
			"buffer":0,
			"byteLength":24,
			"byteOffset":51984
		},
		{
			"buffer":0,
			"byteLength":24,
			"byteOffset":52008
		},
		{
			"buffer":0,
			"byteLength":32,
			"byteOffset":52032
		},
		{
			"buffer":0,
			"byteLength":24,
			"byteOffset":52064
		},
		{
			"buffer":0,
			"byteLength":24,
			"byteOffset":52088
		},
		{
			"buffer":0,
			"byteLength":32,
			"byteOffset":52112
		},
		{
			"buffer":0,
			"byteLength":24,
			"byteOffset":52144
		},
		{
			"buffer":0,
			"byteLength":24,
			"byteOffset":52168
		},
		{
			"buffer":0,
			"byteLength":32,
			"byteOffset":52192
		},
		{
			"buffer":0,
			"byteLength":24,
			"byteOffset":52224
		},
		{
			"buffer":0,
			"byteLength":24,
			"byteOffset":52248
		},
		{
			"buffer":0,
			"byteLength":32,
			"byteOffset":52272
		},
		{
			"buffer":0,
			"byteLength":24,
			"byteOffset":52304
		},
		{
			"buffer":0,
			"byteLength":24,
			"byteOffset":52328
		},
		{
			"buffer":0,
			"byteLength":32,
			"byteOffset":52352
		},
		{
			"buffer":0,
			"byteLength":24,
			"byteOffset":52384
		},
		{
			"buffer":0,
			"byteLength":24,
			"byteOffset":52408
		},
		{
			"buffer":0,
			"byteLength":32,
			"byteOffset":52432
		},
		{
			"buffer":0,
			"byteLength":24,
			"byteOffset":52464
		},
		{
			"buffer":0,
			"byteLength":24,
			"byteOffset":52488
		},
		{
			"buffer":0,
			"byteLength":32,
			"byteOffset":52512
		},
		{
			"buffer":0,
			"byteLength":24,
			"byteOffset":52544
		},
		{
			"buffer":0,
			"byteLength":24,
			"byteOffset":52568
		},
		{
			"buffer":0,
			"byteLength":32,
			"byteOffset":52592
		},
		{
			"buffer":0,
			"byteLength":24,
			"byteOffset":52624
		},
		{
			"buffer":0,
			"byteLength":24,
			"byteOffset":52648
		},
		{
			"buffer":0,
			"byteLength":32,
			"byteOffset":52672
		},
		{
			"buffer":0,
			"byteLength":24,
			"byteOffset":52704
		},
		{
			"buffer":0,
			"byteLength":24,
			"byteOffset":52728
		},
		{
			"buffer":0,
			"byteLength":32,
			"byteOffset":52752
		},
		{
			"buffer":0,
			"byteLength":24,
			"byteOffset":52784
		}
	],
	"samplers":[
		{
			"magFilter":9729,
			"minFilter":9987
		}
	],
	"buffers":[
		{
			"byteLength":52808,
			"uri":"prisoner.bin"
		}
	]
}
